<?xml version="1.0" encoding="UTF-8" standalone="no"?>
<!-- Created with Inkscape (http://www.inkscape.org/) -->

<svg
   width="1920"
   height="1080"
   viewBox="0 0 508 285.74999"
   version="1.1"
   id="svg1"
   inkscape:version="1.4 (e7c3feb100, 2024-10-09)"
   sodipodi:docname="ae35.svg"
   xmlns:inkscape="http://www.inkscape.org/namespaces/inkscape"
   xmlns:sodipodi="http://sodipodi.sourceforge.net/DTD/sodipodi-0.dtd"
   xmlns:xlink="http://www.w3.org/1999/xlink"
   xmlns="http://www.w3.org/2000/svg"
   xmlns:svg="http://www.w3.org/2000/svg">
  <sodipodi:namedview
     id="namedview1"
     pagecolor="#505050"
     bordercolor="#eeeeee"
     borderopacity="1"
     inkscape:showpageshadow="0"
     inkscape:pageopacity="0"
     inkscape:pagecheckerboard="0"
     inkscape:deskcolor="#505050"
     inkscape:document-units="mm"
     inkscape:zoom="0.54215987"
     inkscape:cx="959.12669"
     inkscape:cy="557.95351"
     inkscape:window-width="1920"
     inkscape:window-height="1028"
     inkscape:window-x="0"
     inkscape:window-y="28"
     inkscape:window-maximized="1"
     inkscape:current-layer="layer1" />
  <defs
     id="defs1">
    <filter
       id="ar"
       x="-0.0028867924"
       y="-0.014232558"
       width="1.0057736"
       height="1.0284651"
       color-interpolation-filters="sRGB">
      <feGaussianBlur
         stdDeviation="1.275"
         id="feGaussianBlur67" />
    </filter>
    <filter
       id="aq"
       x="-0.00027261491"
       y="-0.00070993467"
       width="1.0005452"
       height="1.0014199"
       color-interpolation-filters="sRGB">
      <feGaussianBlur
         stdDeviation="0.056794773"
         id="feGaussianBlur68" />
    </filter>
  </defs>
  <g
     inkscape:label="Background"
     inkscape:groupmode="layer"
     id="layer1">
    <rect
       style="opacity:1;fill:#000000;stroke-width:0.262359;-inkscape-stroke:none"
       id="rect3"
       width="507.99515"
       height="285.75"
       x="0"
       y="0" />
    <g
       id="g2"
       transform="translate(-255.23322,4.5891916)"
       style="opacity:1">
      <path
         style="opacity:0.269203;fill:#747474;stroke-width:1.35185"
         d="m 921.39359,291.50351 c -2.12195,-0.85292 -2.3431,-1.83426 -0.7174,-3.18347 1.67438,-1.38961 5.44994,0.24927 5.44994,2.36569 0,1.80654 -1.58935,2.08118 -4.73254,0.81778 z m 1.44034,-7.28465 c 0,-0.45268 0.37038,-1.05197 0.82305,-1.33173 0.45268,-0.27977 0.82305,-0.1383 0.82305,0.31437 0,0.45268 -0.37037,1.05196 -0.82305,1.33173 -0.45267,0.27976 -0.82305,0.13829 -0.82305,-0.31437 z m 2.46916,-5.71189 c 0,-3.30356 5.75949,-14.96154 7.39158,-14.96154 0.44415,0 0.61584,1.68681 0.39443,3.87504 -0.46789,4.62389 -4.78594,11.70167 -7.16873,11.75032 -0.33951,0.007 -0.61728,-0.29179 -0.61728,-0.66382 z m 57.69616,-3.23306 c -1.63889,-1.35212 -1.68951,-1.75543 -0.82629,-6.58441 l 0.91956,-5.14407 h 3.11619 c 1.95969,0 3.28578,0.44192 3.57313,1.19072 0.83152,2.1669 -0.83635,9.74694 -2.39551,10.88704 -1.92552,1.40796 -2.29254,1.37874 -4.38708,-0.34928 z m 10.35707,-1.6461 c -0.19641,-0.33951 -0.0919,-1.34769 0.23207,-2.24039 0.5233,-1.44164 0.63705,-1.37262 1.01746,0.61729 0.39286,2.05516 -0.40215,3.08785 -1.24953,1.6231 z m -13.61391,-18.37513 c -1.97215,-0.38771 -4.04618,-1.08707 -4.60894,-1.55412 -0.65132,-0.54055 -1.22372,-4.51438 -1.57487,-10.93336 -0.30341,-5.54629 -0.78055,-12.399 -1.06031,-15.22823 l -0.50865,-5.14406 h 5.90085 c 4.24891,0 6.02249,0.31697 6.33533,1.13224 0.57736,1.50456 2.63095,31.20412 2.21235,31.99555 -0.38942,0.73627 -1.89364,0.67606 -6.69576,-0.26802 z m 2.18995,-8.38554 c 0.52049,-0.62713 0.67594,-3.10769 0.3914,-6.24561 -0.40842,-4.50412 -0.74503,-5.32969 -2.49889,-6.12879 -2.71127,-1.23534 -4.6065,1.02001 -3.43855,4.09194 0.4244,1.11626 0.54196,2.94473 0.26122,4.06324 -0.8707,3.46918 3.20609,6.72395 5.28482,4.21922 z m -0.004,-14.76223 c 1.57637,-1.57639 1.18374,-5.98722 -0.68338,-7.67693 -2.39641,-2.16873 -6.04619,-0.82897 -6.41352,2.35429 -0.53203,4.61077 4.23415,8.18539 7.0969,5.32264 z m -314.94301,16.00832 c -3.08565,-5.84635 -5.81499,-23.13212 -4.38601,-27.77795 0.75887,-2.4672 0.75982,-2.46753 1.19521,-0.41153 1.3634,6.43838 4.95334,24.67685 5.30562,26.95491 0.44958,2.90728 -0.83592,3.65772 -2.11482,1.23457 z m 17.64309,0.72776 c -0.35455,-0.57367 -0.42236,-1.2653 -0.15069,-1.53697 0.73659,-0.73661 1.53974,0.34675 1.14189,1.54029 -0.27879,0.83636 -0.47266,0.83571 -0.9912,-0.003 z m -2.94896,-4.50325 c 0,-0.15263 -1.10689,-3.94895 -2.45976,-8.43626 -2.43185,-8.06615 -3.22103,-15.15467 -1.68721,-15.15467 0.43522,0 1.20338,1.57407 1.70698,3.49797 0.50362,1.92387 2.00272,6.69976 3.33132,10.61308 2.39482,7.05378 2.46553,9.75742 0.2552,9.75742 -0.6306,0 -1.14653,-0.12491 -1.14653,-0.27754 z m 254.32265,-1.36856 c 0,-0.45268 0.34852,-0.82306 0.77447,-0.82306 0.42597,0 1.00338,0.37038 1.28316,0.82306 0.27976,0.45266 -0.0688,0.82304 -0.77449,0.82304 -0.70573,0 -1.28314,-0.37038 -1.28314,-0.82304 z M 300.607,241.8919 c 0,-0.5925 0.49902,-1.75972 1.10893,-2.59384 1.45122,-1.98464 2.60255,-0.29631 1.36933,2.008 -1.00248,1.87313 -2.47826,2.222 -2.47826,0.58584 z m 106.47264,-7.77053 c 0.28022,-1.69754 0.9563,-4.56792 1.50241,-6.37864 0.87965,-2.91669 1.03094,-3.0575 1.32635,-1.23457 0.44883,2.76959 -1.38111,10.69965 -2.46904,10.69965 -0.54631,0 -0.67995,-1.14659 -0.35972,-3.08644 z m -104.82654,1.25472 c 0,-0.63022 0.56394,-1.8648 1.2532,-2.7435 1.19545,-1.52401 1.24288,-1.48676 1.02882,0.80802 -0.22263,2.38673 -2.28202,4.13338 -2.28202,1.93548 z m 8.2305,-2.28352 c 0,-0.45268 0.37038,-0.82306 0.82305,-0.82306 0.45268,0 0.82305,0.37038 0.82305,0.82306 0,0.45267 -0.37037,0.82304 -0.82305,0.82304 -0.45267,0 -0.82305,-0.37037 -0.82305,-0.82304 z m 486.80061,-1.70087 c -0.29838,-0.4828 -0.34489,-1.07543 -0.10329,-1.317 0.58957,-0.58955 2.19481,0.44925 2.19481,1.42034 0,1.05183 -1.42093,0.98162 -2.09147,-0.10329 z m -46.69646,-11.26219 c -2.3823,-6.73182 -2.69112,-8.43626 -1.52845,-8.43626 0.781,0 3.89999,8.04313 4.73181,12.20217 0.97745,4.88727 -0.938,2.63543 -3.20336,-3.76591 z m -109.24388,3.48198 c -0.87785,-2.30894 -0.14152,-11.91824 0.91325,-11.91824 0.36996,0 0.64865,1.01852 0.61928,2.26339 -0.0293,1.24486 0.22254,4.39303 0.5598,6.99593 0.44098,3.40337 0.34398,4.73254 -0.34537,4.73254 -0.52722,0 -1.31334,-0.93314 -1.74696,-2.07362 z m 99.50026,-0.14024 c -1.36172,-3.44249 -2.03373,-13.8195 -0.84744,-13.08634 0.51831,0.32033 0.94238,1.25597 0.94238,2.07918 0,0.82322 0.55557,1.95782 1.23459,2.52135 1.41891,1.1776 1.74899,9.46154 0.40997,10.28909 -0.45351,0.28031 -1.2363,-0.53118 -1.7395,-1.80328 z m -42.70368,0.4399 c 0,-1.54572 2.25983,-3.64802 3.06061,-2.84724 0.30342,0.30342 -0.2611,1.36443 -1.25448,2.35781 -1.45155,1.45156 -1.80613,1.54764 -1.80613,0.48943 z m -216.49429,-1.14524 c -0.84493,-1.01807 -0.94194,-8.89041 -0.4843,-39.30067 1.14757,-76.255 3.68542,-131.71811 6.13273,-134.026225 0.30603,-0.288632 1.37743,-0.772633 2.38087,-1.075568 1.47695,-0.445893 1.92223,-0.161181 2.33786,1.494776 0.58166,2.317536 -0.72635,51.859157 -2.47795,93.853587 -0.64379,15.43492 -1.60909,39.17467 -2.14509,52.755 -0.53601,13.58034 -1.31281,25.33967 -1.72622,26.13186 -0.92927,1.78072 -2.6204,1.85111 -4.0179,0.16724 z m 324.6916,-1.25081 c -0.29838,-0.4828 -0.33622,-1.08411 -0.0841,-1.33626 0.67708,-0.67707 2.9986,0.37986 2.9986,1.36518 0,1.1171 -2.21987,1.09506 -2.91452,-0.0289 z m -408.54582,-2.89452 c 0.0395,-0.95879 0.23452,-1.15382 0.49727,-0.49725 0.23774,0.59414 0.20852,1.30402 -0.065,1.57751 -0.2735,0.2735 -0.46801,-0.21261 -0.43228,-1.08026 z m 334.91664,0.02 c 0,-0.70573 0.37036,-1.05425 0.82304,-0.77447 0.45268,0.27976 0.82306,0.85718 0.82306,1.28314 0,0.42597 -0.37038,0.77448 -0.82306,0.77448 -0.45268,0 -0.82304,-0.57742 -0.82304,-1.28315 z m 102.21873,-2.42057 c 0.0168,-1.35804 0.20123,-1.81396 0.4099,-1.01316 0.20869,0.80081 0.19497,1.91192 -0.0306,2.46915 -0.22544,0.55724 -0.39618,-0.098 -0.37941,-1.45599 z m -39.29652,0.50644 c -0.43004,-0.40047 -7.4486,-4.11944 -15.5968,-8.26439 -15.15485,-7.70916 -18.70743,-9.96439 -15.60857,-9.90849 0.88919,0.0161 2.54263,0.55848 3.67433,1.20542 1.1317,0.64694 2.82641,1.18936 3.76603,1.20541 0.93961,0.0161 2.57825,0.95509 3.64142,2.08679 1.06317,1.1317 2.38116,2.05763 2.92884,2.05763 0.5477,0 4.02049,1.51389 7.71731,3.36422 3.69684,1.85032 7.25826,3.15825 7.91429,2.90651 1.46396,-0.56178 1.58262,-4.94097 0.16396,-6.05143 -0.56584,-0.44292 -3.25104,-2.00026 -5.96711,-3.46075 -5.71938,-3.07547 -7.64099,-4.66386 -4.52678,-3.74179 4.03742,1.1954 27.54702,11.95848 30.74873,14.07727 2.78641,1.84396 3.05932,2.27037 1.87665,2.93223 -1.02109,0.57143 -2.62016,0.0635 -6.09923,-1.93725 -8.83722,-5.08218 -10.99039,-5.95799 -12.43118,-5.05636 -2.03929,1.27616 -2.19451,4.94559 -0.2355,5.56736 1.1076,0.35154 1.47753,1.01513 1.18644,2.12828 -0.44699,1.70925 -1.84799,2.10445 -3.15283,0.88934 z m -377.26258,-3.04417 c 0.0395,-0.95881 0.23452,-1.15384 0.49726,-0.49726 0.23775,0.59413 0.20851,1.30401 -0.065,1.5775 -0.27349,0.2735 -0.46802,-0.21261 -0.43228,-1.08024 z m 409.40271,0.48011 c -0.27976,-0.45268 -0.11639,-0.82306 0.36296,-0.82306 0.47939,0 0.87161,0.37038 0.87161,0.82306 0,0.45268 -0.16333,0.82304 -0.36294,0.82304 -0.19963,0 -0.59186,-0.37036 -0.87163,-0.82304 z m -166.97571,-2.08454 c -0.2833,-0.73827 -0.52841,-2.88609 -0.5447,-4.77294 l -0.0296,-3.43065 -1.85318,2.26338 c -3.04702,3.72148 -5.22811,2.26296 -2.9583,-1.97822 0.66129,-1.23563 1.40319,-1.53562 2.88068,-1.16479 l 1.99,0.49946 0.0437,-10.50958 c 0.0414,-9.9489 0.63481,-20.05158 1.21401,-20.66709 0.58101,-0.61744 3.55687,0.82898 3.98135,1.93516 0.24905,0.64902 0.0756,2.26239 -0.38563,3.58525 -0.46115,1.32285 -0.90849,9.75418 -0.99408,18.73627 -0.13664,14.3395 -0.31864,16.36247 -1.49241,16.58856 -0.73523,0.14161 -1.56856,-0.34655 -1.85185,-1.08481 z m 166.10834,-3.74853 c -0.30415,-0.49213 -0.14082,-1.30695 0.36296,-1.81072 0.67255,-0.67255 0.91594,-0.4348 0.91594,0.89476 0,1.98727 -0.42755,2.29348 -1.2789,0.91596 z m -518.72028,-6.30691 c 0.18755,-4.28145 0.52652,-5.5556 1.47794,-5.5556 0.87199,0 1.31092,1.06841 1.4945,3.63771 0.3369,4.71523 -0.38623,7.47347 -1.95931,7.47347 -1.02657,0 -1.21196,-1.01663 -1.01313,-5.55558 z m 439.06653,5.00688 c -1.11235,-1.11235 -0.57284,-5.21265 0.68587,-5.21265 0.86225,0 1.23458,0.86878 1.23458,2.88068 0,2.72364 -0.69042,3.562 -1.92045,2.33197 z m 86.85806,-3.15502 c -1.21701,-4.09986 -1.24216,-5.9177 -0.0917,-6.62873 1.89814,-1.17312 2.65906,1.1056 1.85593,5.55803 l -0.78698,4.36289 z M 705.1032,202.58494 c -0.29838,-0.4828 -0.34488,-1.07545 -0.10328,-1.317 0.58957,-0.58957 2.1948,0.44923 2.1948,1.42032 0,1.05184 -1.42092,0.98164 -2.09147,-0.10328 z m -12.41069,-1.14041 c -0.61882,-1.61264 0.29475,-2.92009 2.04036,-2.92009 1.89584,0 3.3881,1.56395 2.84433,2.98097 -0.5773,1.50445 -4.30183,1.45803 -4.88469,-0.0608 z m -377.20496,-0.93105 c 0.0395,-0.95881 0.23452,-1.15384 0.49726,-0.49727 0.23775,0.59414 0.20851,1.30402 -0.065,1.57753 -0.27349,0.27349 -0.46802,-0.21264 -0.43228,-1.08026 z m 413.10643,-1.62609 c 0,-1.19455 0.35625,-1.88602 0.82306,-1.59753 0.45268,0.27977 0.82304,1.22756 0.82304,2.10621 0,0.87863 -0.37036,1.59751 -0.82304,1.59751 -0.45268,0 -0.82306,-0.94777 -0.82306,-2.10619 z m 45.78515,-2.44158 c -0.21762,-0.56711 -3.27613,-2.62114 -6.79669,-4.56454 -3.52056,-1.94339 -5.99971,-3.66721 -5.50922,-3.8307 0.95714,-0.31905 15.27144,6.27053 17.89867,8.23963 1.4647,1.09778 1.32928,1.18672 -1.80687,1.18672 -1.95694,0 -3.5575,-0.43592 -3.78589,-1.03111 z M 314.36452,194.6697 c -0.53894,-0.90583 -1.81351,-9.41318 -1.64204,-10.96018 0.0753,-0.679 -0.79953,-4.32027 -1.94396,-8.09169 -2.07029,-6.82241 -2.01074,-9.3611 0.15024,-6.4058 1.51847,2.07664 2.7728,8.31211 3.57856,17.78969 0.6577,7.7361 0.63464,8.97471 -0.1428,7.66798 z m 103.64265,-0.008 c -0.28948,-0.28948 -0.52633,-1.55471 -0.52633,-2.81163 0,-1.37832 -0.67642,-2.75909 -1.70435,-3.47909 l -1.70435,-1.19377 1.88749,-1.32204 c 2.5476,-1.78442 3.74934,-1.66419 4.90248,0.49046 0.72268,1.35035 0.73006,1.89252 0.0289,2.12623 -0.5176,0.17252 -0.94109,1.55727 -0.94109,3.0772 0,2.71063 -0.90111,4.15435 -1.94282,3.11264 z m 416.52541,-0.82581 c -0.78792,-1.34946 1.89433,-17.8425 3.23428,-19.88753 0.77728,-1.18627 1.47736,-4.15763 1.60751,-6.8227 0.18378,-3.7637 -0.11599,-5.16172 -1.47807,-6.89336 -1.50996,-1.91958 -1.65626,-2.93619 -1.25823,-8.74315 0.35652,-5.2017 0.20856,-6.66379 -0.71009,-7.01631 -1.23518,-0.47399 -1.63827,-3.5614 -0.46498,-3.5614 1.22245,0 3.34432,2.87151 3.36236,4.55023 0.009,0.89246 0.3946,3.65969 0.85561,6.14943 2.57656,13.9153 2.6813,16.90232 0.90145,25.70717 -2.42277,11.98537 -3.70044,16.52381 -4.75032,16.87377 -0.50256,0.16753 -1.08735,0.007 -1.29952,-0.35615 z m -112.66706,-2.348 c -0.0792,-1.33539 -0.0516,-3.83983 0.0612,-5.56542 0.21128,-3.22886 -1.6411,-7.1507 -3.37747,-7.1507 -1.82389,0 -17.93904,-10.06076 -17.93904,-11.19943 0,-1.42654 0.10314,-1.42367 2.99236,0.0831 1.29661,0.67622 3.37599,1.23177 4.62085,1.23457 1.24488,0.003 2.2634,0.34826 2.2634,0.76771 0,0.41945 2.05007,1.93557 4.5557,3.36917 4.60836,2.63662 7.36555,2.80275 6.4389,0.38794 -0.52998,-1.38108 -7.66968,-5.34281 -9.62864,-5.34281 -0.63686,0 -2.77882,-1.51461 -4.75991,-3.3658 l -3.60199,-3.36581 3.19808,0.33289 3.19806,0.33289 -2.21515,-1.90538 c -1.21834,-1.04797 -2.94686,-1.90539 -3.84119,-1.90539 -1.82144,0 -2.82657,-1.80975 -2.08231,-3.74923 0.40777,-1.06266 1.01688,-0.86989 3.58601,1.13491 1.70215,1.32826 5.50223,3.68621 8.44464,5.2399 3.77357,1.99257 5.34982,3.29506 5.34982,4.42068 0,2.07752 1.14123,3.80824 2.11451,3.20672 0.42139,-0.26043 0.76618,-1.1829 0.76618,-2.04991 0,-0.91911 1.02953,-2.10878 2.46915,-2.85325 1.70954,-0.88404 2.46914,-1.8884 2.46914,-3.26476 0,-2.6224 0.98128,-3.11723 3.15808,-1.59254 2.31787,1.6235 2.24759,2.91951 -0.27739,5.11497 -1.45096,1.26159 -2.05763,2.6257 -2.05763,4.62662 0,1.56065 -0.39322,3.08057 -0.87382,3.3776 -1.66543,1.0293 -2.58845,4.94436 -3.00024,12.72591 -0.39866,7.53304 -1.72718,12.0815 -2.03136,6.95477 z m 6.76562,0.13888 c -1.63542,-4.30148 -1.74694,-5.87215 -0.53286,-7.50518 1.22007,-1.64106 1.22928,-1.64072 3.00509,0.11058 1.64599,1.62326 1.69934,1.99829 0.7025,4.93831 -1.51993,4.48279 -2.20327,5.01148 -3.17473,2.4563 z m 23.07324,-3.45851 c 0.0395,-0.95881 0.23451,-1.15384 0.49726,-0.49726 0.23775,0.59413 0.20851,1.30402 -0.065,1.57751 -0.27349,0.2735 -0.468,-0.21262 -0.43228,-1.08025 z m -57.95754,-0.13717 c -0.89207,-1.46386 -0.89559,-7.06677 -0.004,-7.37235 1.13506,-0.38927 3.10029,5.07393 2.44215,6.789 -0.49228,1.28285 -1.81791,1.6001 -2.4375,0.58335 z m -41.26502,-9.25191 c 0.22354,-9.26388 0.67626,-11.24057 2.06976,-9.03713 1.52798,2.41609 0.41887,15.49231 -1.47465,17.38584 -0.53966,0.53966 -0.74132,-2.2895 -0.59511,-8.34871 z m 99.77393,4.10784 c -0.28956,-1.1317 -0.76168,-3.86425 -1.04915,-6.07234 -0.28747,-2.20809 -0.741,-4.58369 -1.00786,-5.27908 -0.3045,-0.79354 -0.14721,-1.0555 0.42237,-0.70348 1.16834,0.72208 2.86876,8.8756 2.4686,11.83702 l -0.30747,2.27551 z m -114.47168,-0.5487 c -1.04346,-1.04346 -0.54232,-1.92045 1.0974,-1.92045 0.9145,0 1.6461,0.54869 1.6461,1.23458 0,1.25301 -1.74109,1.68829 -2.7435,0.68587 z m 247.2126,-0.22262 c -1.0466,-0.67921 -1.02674,-0.85714 0.14591,-1.30712 1.87756,-0.72049 5.21968,-0.15651 5.00068,0.84387 -0.24581,1.12287 -3.65702,1.42992 -5.14659,0.46325 z m 11.91117,-0.87478 c -0.27978,-0.45268 -0.1164,-0.82305 0.36294,-0.82305 0.47941,0 0.87163,0.37037 0.87163,0.82305 0,0.45268 -0.16333,0.82304 -0.36294,0.82304 -0.19963,0 -0.59187,-0.37036 -0.87163,-0.82304 z M 756.5777,180.41787 c 0,-0.45268 0.55557,-0.82306 1.23458,-0.82306 0.67902,0 1.23458,0.37038 1.23458,0.82306 0,0.45267 -0.55556,0.82305 -1.23458,0.82305 -0.67901,0 -1.23458,-0.37038 -1.23458,-0.82305 z M 420.3219,177.6722 c -0.28154,-1.12168 -0.10531,-2.79911 0.39163,-3.72763 0.74573,-1.3934 0.61519,-1.8425 -0.74749,-2.57179 -1.03746,-0.55523 -1.84416,-2.09159 -2.17081,-4.13427 -0.28589,-1.78788 -1.02915,-3.67341 -1.65167,-4.19006 -1.38079,-1.14596 -1.51337,-4.29435 -0.16186,-3.84385 0.53351,0.17784 1.35765,1.04204 1.83141,1.92046 0.47377,0.8784 1.73254,2.95459 2.79727,4.61374 1.06474,1.65915 1.85037,3.6962 1.74584,4.52678 -0.1045,0.83058 0.0796,2.127 0.40934,2.88096 0.84432,1.93096 0.25845,5.84624 -0.93334,6.2374 -0.54916,0.18024 -1.2288,-0.59004 -1.51032,-1.71174 z m 453.129,0.68793 c 0,-0.67902 0.37036,-1.23457 0.82304,-1.23457 0.45268,0 0.82306,0.55555 0.82306,1.23457 0,0.67902 -0.37038,1.23457 -0.82306,1.23457 -0.45268,0 -0.82304,-0.55555 -0.82304,-1.23457 z m 8.50715,-0.0547 c -0.23239,-0.60557 -0.22348,-1.42309 0.0197,-1.81669 0.24327,-0.3936 -0.30491,-1.35543 -1.21817,-2.13739 -1.19299,-1.02147 -1.53358,-2.0476 -1.20974,-3.64478 0.2479,-1.22267 0.65404,-7.75312 0.90252,-14.5121 0.24848,-6.75899 0.82983,-12.74458 1.29188,-13.3013 1.41554,-1.70564 -0.6309,-2.18691 -2.92034,-0.6868 -1.79466,1.1759 -2.08087,1.96636 -2.08087,5.74698 0,2.41095 -0.34666,4.59779 -0.77034,4.85964 -0.85488,0.52834 -7.27148,-0.73896 -8.14026,-1.60772 -0.30354,-0.30356 0.12005,-1.04324 0.94125,-1.64373 1.13866,-0.83261 1.29899,-1.45169 0.67537,-2.60763 -0.9943,-1.84297 -2.45321,-12.09574 -2.20666,-15.50765 0.12289,-1.70054 0.66861,-2.55807 1.75309,-2.75481 0.86607,-0.15711 1.92651,-0.62008 2.35656,-1.02881 1.60629,-1.52672 2.88492,-0.6446 3.7563,2.59142 1.11205,4.12985 2.97119,5.01949 4.96522,2.37595 1.08856,-1.44313 1.26218,-2.34923 0.66423,-3.46651 -0.956,-1.78633 -0.0729,-10.25792 1.14811,-11.01248 0.45938,-0.28392 1.17524,0.0914 1.59081,0.83392 1.05494,1.88507 3.14292,1.68844 3.14292,-0.29597 0,-2.21987 1.51727,-2.08952 2.39508,0.20576 0.38952,1.01853 1.43836,2.50937 2.33075,3.31297 1.40234,1.2628 1.75647,1.29975 2.60925,0.2722 0.78621,-0.94732 0.69908,-1.34986 -0.42875,-1.98104 -1.05582,-0.59086 -1.45415,-2.01932 -1.56775,-5.62203 -0.0838,-2.65644 -0.44244,-5.50294 -0.79708,-6.32555 -0.37382,-0.86708 -0.26432,-1.87616 0.26054,-2.40102 0.65844,-0.65844 1.00301,-0.58724 1.26343,0.26108 0.70335,2.29114 2.14583,8.64865 2.97244,13.10067 1.8356,9.88628 2.51719,12.62765 3.40583,13.69839 1.16097,1.3989 -0.22802,1.48033 -1.61374,0.0946 -0.81388,-0.81388 -1.17996,-0.772 -1.79811,0.20575 -1.16752,1.84669 -0.96847,2.46228 0.79615,2.46228 0.87864,0 1.82642,0.37037 2.1062,0.82304 0.84005,1.35924 10.74819,1.01759 11.93423,-0.41151 0.56353,-0.67902 1.87874,-1.23459 2.92266,-1.23459 3.22357,0 5.90599,-3.9628 3.63322,-5.36745 -0.46836,-0.28947 -0.82446,-2.07059 -0.79133,-3.95807 0.0331,-1.88747 -0.3242,-5.654 -0.79407,-8.37006 -0.46988,-2.71607 -0.89807,-5.49386 -0.95155,-6.17288 -0.0535,-0.67901 -0.58355,-3.642 -1.17792,-6.5844 -1.03213,-5.10948 -1.01046,-29.26557 0.0272,-30.303219 1.22372,-1.223718 1.55487,1.884702 1.41144,13.24898 -0.14871,11.782403 0.0346,13.429439 3.08212,27.693489 2.32072,10.8622 3.01311,15.59043 2.43988,16.66151 -0.4402,0.82251 -0.71818,2.71559 -0.61775,4.20684 0.23797,3.5334 -0.6603,4.91057 -2.76682,4.24198 -0.9212,-0.29237 -2.55671,-0.0596 -3.63445,0.51712 -1.68562,0.90212 -1.95956,1.65852 -1.95956,5.4106 0,3.57684 -0.22661,4.27491 -1.25911,3.87871 -0.74246,-0.28492 -1.07489,-1.06358 -0.81014,-1.8977 0.26489,-0.8346 -0.3533,-2.28016 -1.50787,-3.52596 l -1.95681,-2.11142 1.94392,-0.88572 c 2.19662,-1.00085 2.53261,-2.39285 0.74327,-3.07948 -1.45987,-0.5602 -6.59037,1.04244 -7.7034,2.40636 -0.75486,0.92498 -2.70074,19.84896 -2.97894,28.97043 -0.16498,5.40945 -1.62815,5.30914 -1.94362,-0.13329 -0.16089,-2.77572 -0.6602,-4.40733 -1.44033,-4.70671 -0.65674,-0.25201 -1.19409,-0.0995 -1.19409,0.33901 0,0.43848 -0.72771,0.79722 -1.61714,0.79722 -2.13995,0 -3.95307,3.20882 -2.37732,4.20732 0.61258,0.38818 1.38564,0.71145 1.71791,0.71838 0.63971,0.0135 0.4413,6.26628 -0.21754,6.85537 -0.21261,0.19013 -2.17372,0.53778 -4.35802,0.77258 -2.86966,0.30848 -4.08866,0.1214 -4.39395,-0.67412 z m 11.97505,-17.69901 c -1.32079,-0.8163 -1.922,-0.38329 -1.16606,0.83985 0.30295,0.49018 0.93514,0.65371 1.40486,0.3634 0.55299,-0.34176 0.4688,-0.76593 -0.2388,-1.20325 z m -12.25169,-21.34118 c 0,-0.45268 -0.57743,-0.82306 -1.28316,-0.82306 -0.70573,0 -1.05425,0.37038 -0.77448,0.82306 0.27977,0.45268 0.8572,0.82304 1.28315,0.82304 0.42597,0 0.77449,-0.37036 0.77449,-0.82304 z m 6.7498,-12.67849 c -0.39841,-3.41276 -2.20451,-5.36485 -3.63765,-3.93171 -0.69574,0.69574 -0.58165,1.32194 0.4482,2.45991 0.75985,0.83962 1.14276,1.76535 0.85093,2.05719 -0.6559,0.65589 1.31812,3.15642 2.10694,2.66891 0.31369,-0.19387 0.41791,-1.65831 0.23158,-3.2543 z m 7.09096,0.94298 c 0.18586,-1.61032 -0.10869,-2.25635 -1.02882,-2.25635 -0.70909,0 -1.28924,0.52526 -1.28924,1.16725 0,0.642 -0.23923,1.79068 -0.53162,2.55263 -0.40058,1.04391 -0.147,1.31235 1.02881,1.08909 0.9932,-0.18857 1.65511,-1.11649 1.82087,-2.55262 z m 44.25257,47.23715 c -0.35455,-0.57367 -0.42235,-1.26531 -0.15069,-1.53698 0.7366,-0.73659 1.53974,0.34675 1.14189,1.54029 -0.27879,0.83636 -0.47266,0.83571 -0.9912,-0.003 z M 608.12557,172.8899 c -0.84567,-0.49134 -2.98076,-0.69977 -4.74462,-0.46319 -2.55092,0.34215 -3.37278,0.12044 -4.01713,-1.08351 -1.0253,-1.91577 -3.98829,-2.89316 -5.17454,-1.70691 -2.31119,2.31119 -8.15758,0.33803 -11.81961,-3.98909 l -1.77893,-2.10203 -2.0869,1.95433 c -1.92609,1.80372 -2.18992,1.85128 -3.42393,0.61728 -0.73536,-0.73537 -1.86613,-1.33703 -2.51281,-1.33703 -0.64668,0 -1.17578,-0.30397 -1.17578,-0.67548 0,-1.05543 -12.68876,-2.82229 -13.02497,-1.81368 -0.23416,0.70249 -2.60798,1.28093 -2.61536,0.6373 -10e-4,-0.11315 -0.74097,-4.65024 -1.64374,-10.08237 -0.90276,-5.43214 -1.64245,-9.93899 -1.64375,-10.01525 -10e-4,-0.0762 -1.25923,-0.91542 -2.79541,-1.86483 -1.53617,-0.94941 -3.39538,-2.99552 -4.13156,-4.5469 -0.73618,-1.55139 -2.41505,-3.89725 -3.73083,-5.21303 -1.43978,-1.43977 -2.60555,-3.67052 -2.92787,-5.60259 -0.29455,-1.76564 -1.20321,-4.87694 -2.01923,-6.914 -3.37277,-8.41951 -6.4723,-29.453244 -5.01706,-34.046099 0.44956,-1.418802 1.03037,-3.968559 1.29071,-5.666099 0.26032,-1.69754 0.80556,-3.086439 1.21161,-3.086439 0.40607,0 0.66707,-1.956229 0.58,-4.347171 -0.13874,-3.809866 0.17231,-4.748574 2.51661,-7.59498 1.47121,-1.786288 2.67492,-3.753156 2.67492,-4.370801 0,-0.617645 0.74075,-2.064701 1.64611,-3.215676 0.90535,-1.150975 1.6461,-3.165468 1.6461,-4.476664 0,-1.311196 0.50364,-2.577253 1.1192,-2.813475 0.61558,-0.236208 2.87722,-3.002381 5.02587,-6.147045 2.14865,-3.144663 4.22472,-5.717564 4.6135,-5.717564 1.39662,0 6.56018,-5.173421 9.14499,-9.162453 2.82027,-4.352427 6.11994,-6.794913 10.20476,-7.553785 1.39487,-0.259138 3.74887,-1.604028 5.23111,-2.988644 1.48224,-1.384617 3.5318,-2.517484 4.55456,-2.517484 1.02278,0 2.78587,-0.728615 3.918,-1.619144 1.13212,-0.890528 2.28309,-1.394449 2.55772,-1.119826 0.27463,0.274625 2.68743,-0.114636 5.36179,-0.865023 3.37119,-0.945908 7.15433,-1.281263 12.3353,-1.093459 6.76569,0.245248 7.6561,0.468613 9.40938,2.360436 1.48703,1.60453 3.084,2.219377 6.87999,2.648843 5.59045,0.632488 8.29961,2.14248 8.68275,4.839478 0.20774,1.462266 0.94448,1.940921 3.55426,2.309192 4.61851,0.651723 9.61246,3.443306 12.38844,6.925048 2.61563,3.280615 9.00349,8.227424 13.73082,10.633236 1.68792,0.859017 3.63981,2.433092 4.33754,3.497968 0.69774,1.064863 1.90821,1.931342 2.68997,1.925502 1.86552,-0.01392 10.24583,-2.679913 15.32396,-4.874932 2.21428,-0.95712 4.19583,-1.570371 4.40343,-1.362768 0.6305,0.6305 -0.63575,2.133063 -1.79759,2.133063 -1.3952,0 -2.14868,2.86832 -1.54559,5.883733 0.51823,2.591177 1.46659,3.042518 2.22735,1.060036 1.0826,-2.821207 2.00207,0.0338 2.57104,7.983163 0.51857,7.24519 0.42103,8.454767 -0.7338,9.101044 -1.55953,0.872765 -1.811,2.433593 -0.30304,1.880945 2.60521,-0.954782 2.95332,0.86606 3.17377,16.600692 l 0.22059,15.74569 -2.72059,2.720602 c -2.45704,2.45705 -2.57163,2.77387 -1.18278,3.27051 0.84581,0.30245 1.80993,0.13749 2.14251,-0.36657 0.43112,-0.6534 0.60831,-0.63312 0.6173,0.0706 0.007,0.5429 -1.10808,2.03446 -2.4778,3.31457 -1.36972,1.28011 -2.68315,3.39035 -2.9187,4.68941 -0.23556,1.29907 -0.97594,3.14086 -1.64527,4.09287 -0.66932,0.95203 -1.58615,3.09658 -2.03739,4.76569 -0.79145,2.92746 -0.94347,3.0293 -4.30061,2.88068 -3.04598,-0.13478 -3.51322,0.0788 -3.74512,1.71265 -0.20379,1.43578 0.3662,2.15603 2.46915,3.12002 l 2.73411,1.25332 -2.88069,-0.53567 c -4.30339,-0.80021 -9.89642,-0.66395 -10.82407,0.2637 -0.98205,0.98204 0.58769,7.61225 1.80224,7.61225 0.43523,0 0.79133,0.55557 0.79133,1.23459 0,1.3179 -2.89331,1.72279 -3.64299,0.50979 -0.61196,-0.99016 -4.58752,-1.68967 -4.58752,-0.80718 0,0.3899 0.37626,0.7089 0.83613,0.7089 1.36568,0 0.64194,5.11552 -1.19093,8.41777 -0.93656,1.68736 -2.63659,3.45647 -3.77787,3.93133 -1.50346,0.62557 -3.01478,2.89779 -5.48664,8.249 -3.21711,6.9646 -3.55628,7.38562 -5.94969,7.38562 -3.87265,0 -5.83031,-2.48723 -5.83031,-7.40745 0,-4.43298 -1.19628,-5.40554 -2.48375,-2.01925 -0.70313,1.84939 -1.12633,2.03422 -3.59669,1.57076 -3.05212,-0.57257 -6.26532,0.67063 -6.26532,2.42408 0,0.60204 -0.74075,2.03632 -1.6461,3.1873 -0.90536,1.15097 -1.6461,2.8676 -1.6461,3.81473 0,2.0472 -1.41568,2.20338 -3.94077,0.43474 -2.25427,-1.57895 -4.53507,-0.95158 -6.29272,1.73092 -1.44782,2.20966 -2.53081,2.4496 -4.88445,1.08212 z m 48.86301,-27.08889 c 0,-0.42595 -0.37037,-0.77447 -0.82305,-0.77447 -0.45268,0 -0.82305,0.57741 -0.82305,1.28314 0,0.70575 0.37037,1.05425 0.82305,0.77449 0.45268,-0.27978 0.82305,-0.85719 0.82305,-1.28316 z m 22.89505,-23.70954 c 0.79062,-0.50134 0.89265,-1.42673 0.37677,-3.41758 -0.97071,-3.74606 -2.91501,-4.86256 -5.70698,-3.27717 -1.1958,0.67901 -2.15003,1.60495 -2.12052,2.05763 0.0295,0.45268 -0.32547,1.27987 -0.78885,1.83822 -0.61507,0.7411 -0.31843,1.20915 1.0988,1.73369 1.06772,0.39519 2.49688,0.92764 3.17589,1.18323 1.80831,0.6807 2.74947,0.65267 3.96489,-0.11802 z m -235.24211,48.08668 c 0,-0.70573 0.37036,-1.28314 0.82304,-1.28314 0.45268,0 0.82306,0.34852 0.82306,0.77447 0,0.42597 -0.37038,1.00338 -0.82306,1.28316 -0.45268,0.27976 -0.82304,-0.0688 -0.82304,-0.77449 z m -53.49829,-0.77447 c 0,-0.67902 0.37036,-1.46348 0.82304,-1.74324 0.45268,-0.27978 0.82306,0.0469 0.82306,0.7259 0,0.67901 -0.37038,1.46348 -0.82306,1.74324 -0.45268,0.27978 -0.82304,-0.0469 -0.82304,-0.7259 z m 541.56731,0.31437 c 0,-0.45268 0.39222,-0.82304 0.87163,-0.82304 0.47939,0 0.64272,0.37036 0.36294,0.82304 -0.27976,0.45268 -0.672,0.82306 -0.87161,0.82306 -0.19963,0 -0.36296,-0.37038 -0.36296,-0.82306 z m 16.461,-0.82304 c 0,-0.45268 0.37038,-0.82306 0.82306,-0.82306 0.45268,0 0.82305,0.37038 0.82305,0.82306 0,0.45268 -0.37037,0.82304 -0.82305,0.82304 -0.45268,0 -0.82306,-0.37036 -0.82306,-0.82304 z m -761.56145,-1.33742 c -0.32088,-0.32089 -0.58342,-0.91668 -0.58342,-1.32397 0,-1.00455 4.11981,-0.43266 4.34661,0.60337 0.21234,0.96999 -2.91497,1.56881 -3.76319,0.7206 z m 242.60029,-2.14223 c -0.74336,-1.93716 -0.10801,-6.63765 0.94384,-6.98227 1.48752,-0.4874 2.13343,5.70711 0.74035,7.10019 -1.03055,1.03055 -1.24936,1.01522 -1.68419,-0.11788 z m -138.65629,-0.99895 c 0,-1.4752 1.35985,-2.38026 2.50912,-1.66997 0.58998,0.36462 0.55809,0.9008 -0.10071,1.69467 -1.24359,1.49844 -2.40834,1.48649 -2.40834,-0.0247 z m 455.17597,-0.40598 c -1.18226,-2.20907 -1.0645,-4.16937 0.25045,-4.16937 1.2761,0 3.26068,3.87135 2.56314,4.99998 -0.75477,1.22126 -1.89573,0.88442 -2.81359,-0.83061 z m 191.84592,0.48282 c -0.62078,-0.74799 -1.84843,-1.35998 -2.72813,-1.35998 -1.30806,0 -4.33219,-1.15359 -5.44629,-2.07753 -0.51524,-0.42731 3.77111,-4.50688 4.73534,-4.50688 0.55166,0 0.84513,-0.46297 0.65216,-1.02882 -0.19297,-0.56585 -1.05717,-0.94001 -1.92045,-0.83147 -0.86327,0.10855 -2.41177,-0.45529 -3.4411,-1.25293 -1.50863,-1.16906 -1.92894,-2.42938 -2.16779,-6.4999 -0.16296,-2.7773 -0.58109,-5.51044 -0.92916,-6.07363 -0.37926,-0.61367 -0.0247,-1.46866 0.88477,-2.1337 1.35117,-0.988 1.08752,-1.10972 -2.40376,-1.10972 -3.24934,0 -3.87516,-0.24006 -3.65165,-1.40068 0.16431,-0.85314 1.79659,-1.87485 4.17561,-2.61365 4.77014,-1.48138 5.03008,-2.57007 0.61366,-2.57007 -1.81072,0 -3.29221,-0.37038 -3.29221,-0.82305 0,-0.45268 0.37953,-0.82306 0.84342,-0.82306 0.46389,0 1.18922,-0.90952 1.61187,-2.02117 0.76259,-2.00576 0.33897,-4.8613 -2.81371,-18.96631 -0.8479,-3.79347 -1.28768,-9.884955 -1.28768,-17.835835 V 78.490071 l 5.33389,-0.571222 c 6.6318,-0.710206 7.83491,-0.27775 7.83491,2.816205 0,3.935818 0.73549,5.13623 2.55144,4.164361 1.00104,-0.535736 1.56383,-1.722441 1.56383,-3.29749 0,-1.883945 0.49474,-2.648671 2.1112,-3.263247 3.10674,-1.181189 11.05077,-1.023361 11.38197,0.226137 2.74624,10.36018 2.98654,12.170991 1.85689,13.992008 -1.00993,1.628001 -0.83754,3.492385 1.42691,15.432047 2.30533,12.15522 2.74777,13.58033 4.21626,13.58033 1.45178,0 1.6456,-0.56852 1.68356,-4.9383 0.0237,-2.71606 -0.20948,-5.30867 -0.51793,-5.76135 -0.30847,-0.45268 -0.94866,-2.8601 -1.42267,-5.34984 -0.474,-2.48972 -1.26666,-6.124575 -1.76144,-8.077452 -1.01573,-4.008898 -0.66115,-5.091348 1.66773,-5.091348 2.742,0 3.07053,1.892773 5.71424,32.92203 0.3664,4.30043 1.05345,12.26344 1.52677,17.69557 1.19185,13.67832 1.49037,21.74981 0.78834,21.31593 -0.71915,-0.44447 -1.3639,-5.10782 -1.92293,-13.90846 -0.77665,-12.22671 -2.09927,-19.34307 -3.59241,-19.3291 -0.74011,0.007 -1.71603,0.28472 -2.16871,0.6173 -0.48923,0.35944 -0.88011,6.90391 -0.96373,16.13641 -0.0829,9.15516 -0.48173,15.87278 -0.97141,16.36246 -0.55892,0.55893 -1.00513,-0.21416 -1.36378,-2.36292 -0.29318,-1.75651 -0.68958,-3.68742 -0.88089,-4.29091 -0.47323,-1.49283 -2.45992,-0.69525 -2.18559,0.87743 0.12045,0.69053 -0.4351,1.47469 -1.23457,1.74259 -0.79947,0.26789 -2.08396,0.94769 -2.85445,1.51067 -0.77047,0.56299 -1.59837,0.82609 -1.83978,0.58469 -0.2414,-0.24142 -0.53694,-6.61518 -0.65675,-14.16394 -0.23121,-14.5661 -0.23754,-14.58594 -4.15733,-13.03775 -1.28735,0.50847 -1.52475,2.06317 -1.90766,12.49367 -0.24054,6.55213 -0.69042,13.35828 -0.99973,15.1248 -0.50082,2.86018 -0.68598,3.06295 -1.69108,1.85187 z m -1.50095,-4.2294 c 0.0892,-0.44647 -0.48587,-0.9366 -1.27805,-1.08915 -0.90091,-0.17351 -1.44034,0.23018 -1.44034,1.07788 0,1.43194 2.43236,1.44203 2.71839,0.0108 z m 7.67548,-36.20424 c 0.51392,-1.33926 -1.86458,-16.33878 -3.00514,-18.95141 -1.11127,-2.54549 -2.61677,-10.999228 -2.10601,-11.825665 0.61861,-1.000934 -2.75115,-5.182612 -3.70252,-4.594627 -0.41644,0.257365 -0.75716,1.792899 -0.75716,3.412302 0,3.451276 4.63773,28.61496 5.77251,31.32086 0.87852,2.09487 3.09639,2.46773 3.79832,0.63854 z m 120.67689,41.00719 c -1.9134,-0.78972 -1.0442,-2.04466 1.2346,-1.78245 1.2449,0.14324 2.1904,0.63081 2.1011,1.08349 -0.189,0.95865 -1.8587,1.30852 -3.3357,0.69896 z m -673.46113,-3.57964 c 1.03968,-1.94265 2.87185,-2.23657 2.14569,-0.34422 -0.27477,0.71605 -0.49959,1.45679 -0.49959,1.64611 0,0.18932 -0.56858,0.34422 -1.26353,0.34422 -1.00849,0 -1.0857,-0.33227 -0.38257,-1.64611 z m 267.42544,-0.58517 c -1.16554,-3.06562 -0.31069,-5.99923 1.74817,-5.99923 1.96157,0 3.574,3.55989 2.87459,6.34651 -0.67479,2.68859 -3.55066,2.47255 -4.62276,-0.34728 z m -220.51155,0.27443 c 0,-0.6236 -0.55556,-1.59488 -1.23458,-2.15842 -1.78103,-1.47812 -1.51805,-3.82334 0.59467,-5.30315 2.43545,-1.70587 7.93821,-1.70033 8.594,0.008 0.78263,2.03948 -0.89065,3.13965 -3.03209,1.99358 -2.26863,-1.21413 -3.24463,-0.0423 -3.26329,3.91822 -0.007,1.4712 -0.38298,2.67491 -0.83566,2.67491 -0.45268,0 -0.82305,-0.51022 -0.82305,-1.13379 z m 12.75728,-1.33536 c -0.27976,-0.45268 -0.11639,-0.82306 0.36296,-0.82306 0.47939,0 0.87162,0.37038 0.87162,0.82306 0,0.45268 -0.16332,0.82305 -0.36295,0.82305 -0.19962,0 -0.59185,-0.37037 -0.87163,-0.82305 z m 287.86196,-0.54509 c -1.66665,-0.67251 -1.17872,-2.74399 0.82306,-3.49415 1.38995,-0.5209 1.98046,-0.36031 2.36743,0.64381 0.28356,0.73578 0.14562,1.80077 -0.30654,2.36661 -0.86958,1.08821 -1.23427,1.14938 -2.88395,0.48373 z m 178.87602,-0.99055 c -0.35454,-0.57367 -0.42235,-1.2653 -0.15068,-1.53697 0.73659,-0.7366 1.53973,0.34675 1.14189,1.5403 -0.27879,0.83636 -0.47266,0.83571 -0.99121,-0.003 z m 143.98508,-0.90206 c -0.5677,-0.91842 8.4688,-3.7529 9.3009,-2.91743 0.3059,0.30719 -0.3182,1.26738 -1.3868,2.13378 -2.0324,1.64764 -7.0718,2.14665 -7.9141,0.78365 z m -665.83009,-1.6171 c -0.64406,-1.04213 0.93476,-4.17571 2.10389,-4.17571 1.14849,0 0.57527,4.3187 -0.62548,4.71251 -0.52437,0.17198 -1.18964,-0.0696 -1.47841,-0.5368 z m 332.06357,-1.29503 c 0,-0.67902 0.37038,-1.23458 0.82306,-1.23458 0.45268,0 0.82304,0.55556 0.82304,1.23458 0,0.67902 -0.37036,1.23457 -0.82304,1.23457 -0.45268,0 -0.82306,-0.55555 -0.82306,-1.23457 z m 182.44289,-0.13717 c -0.30179,-0.30179 -0.5487,-0.93143 -0.5487,-1.39919 0,-0.51573 0.38336,-0.46713 0.97395,0.12342 0.53567,0.53567 0.78258,1.16531 0.5487,1.39919 -0.23388,0.23388 -0.67216,0.17834 -0.97395,-0.12342 z m 8.2991,-1.57346 c -0.33951,-0.34174 -0.61729,-1.30037 -0.61729,-2.13028 0,-0.82991 -0.55556,-1.50893 -1.23457,-1.50893 -1.63128,0 -1.56312,-0.81286 0.17468,-2.08358 1.16302,-0.85041 1.22564,-1.25176 0.35839,-2.29672 -0.87593,-1.05543 -0.7763,-1.41321 0.59841,-2.14892 0.90711,-0.48548 1.84117,-0.5722 2.0757,-0.19273 0.6553,1.0603 -0.65371,11.06741 -1.35532,10.36116 z m 140.47393,-0.44719 c -0.5815,-0.94091 0.6117,-1.39836 5.2533,-2.0141 6.0371,-0.80085 5.5054,-2.41249 -0.7959,-2.41249 -6.4015,0 -7.1159,-1.4691 -1.3322,-2.73953 4.3252,-0.95006 7.9927,-0.57964 8.9759,0.90659 0.7315,1.10577 -0.062,3.65382 -1.514,4.85848 -1.416,1.17517 -10.0227,2.31417 -10.5871,1.40105 z m -336.15421,-0.72286 c -0.67902,-0.43881 -2.90127,-0.80382 -4.93831,-0.81112 -5.23424,-0.0188 -11.86339,-2.66146 -12.19724,-4.86241 -0.14991,-0.98831 -0.87107,-1.73392 -1.67705,-1.73392 -0.77772,0 -3.23805,-1.85187 -5.4674,-4.11526 -2.93986,-2.98473 -4.68366,-4.11525 -6.3477,-4.11525 -2.41624,0 -5.58653,-2.50894 -5.58653,-4.42114 0,-1.9386 17.30731,4.43132 21.28056,7.83228 3.95296,3.38359 5.62618,4.25114 11.65627,6.04367 4.29516,1.2768 4.74173,1.26744 8.2305,-0.17277 4.03609,-1.66613 7.39265,-1.57909 7.39265,0.19171 0,0.62082 0.41005,1.38218 0.91123,1.69193 0.6132,0.37898 0.72964,-0.009 0.35606,-1.186 -0.70082,-2.20809 -0.16219,-2.19843 2.88129,0.0518 2.54072,1.87843 3.29974,4.78352 1.24982,4.78352 -0.6523,0 -1.4149,-0.37036 -1.69468,-0.82304 -0.27976,-0.45268 -1.55258,-0.82306 -2.82846,-0.82306 -1.2759,0 -2.78456,-0.55999 -3.35259,-1.24443 -0.90017,-1.08462 -1.48579,-0.87324 -4.56032,1.6461 -3.98023,3.26149 -3.65596,3.13519 -5.3081,2.06749 z m -431.63028,-0.7263 c -0.62059,-1.00415 2.67391,-5.03505 4.11521,-5.03505 1.77192,0 1.41171,1.95968 -0.73008,3.97178 -2.08884,1.96237 -2.70905,2.15718 -3.38513,1.06327 z m 122.3037,-0.62984 c 0.15948,-0.8281 0.96749,-1.63611 1.79559,-1.79559 1.08732,-0.2094 1.42508,0.12842 1.21567,1.21567 -0.15947,0.8281 -0.96748,1.63612 -1.79558,1.79559 -1.08732,0.2094 -1.42508,-0.12842 -1.21568,-1.21567 z m 639.09549,-0.0156 c -0.9997,-0.99971 -0.5687,-1.87645 0.6859,-1.39504 0.679,0.26057 1.2346,0.80452 1.2346,1.20876 0,0.86288 -1.1339,0.97288 -1.9205,0.18628 z m -51.8017,-3.56655 c -0.8053,-4.69335 -2.18109,-19.88533 -2.21754,-24.48575 -0.0203,-2.55308 0.30153,-3.49796 1.19114,-3.49796 1.8741,0 2.1502,2.5759 1.8965,17.69559 -0.1657,9.87883 -0.4215,12.90311 -0.8701,10.28812 z m 50.1672,-1.36015 c -0.2954,-0.29541 -1.6601,-0.50518 -3.0326,-0.46615 -1.3726,0.0391 -2.2819,-0.27484 -2.0207,-0.69747 0.2612,-0.42264 1.172,-0.76843 2.0239,-0.76843 2.0143,0 3.001,-1.62681 1.5458,-2.54857 -0.6239,-0.39513 -2.18,-0.7241 -3.458,-0.73102 -1.7652,-0.009 -2.258,-0.35885 -2.0503,-1.45295 0.1959,-1.03158 1.3043,-1.55712 3.9059,-1.85187 1.9979,-0.22634 3.7847,-0.87448 3.9707,-1.44033 0.369,-1.12232 -0.056,-1.22586 -5.5602,-1.35407 -4.5651,-0.10639 -5.2603,-1.46729 -1.2769,-2.49938 4.0158,-1.04049 3.2166,-2.59272 -1.1604,-2.25376 -2.6434,0.2047 -3.409,0.003 -3.1142,-0.82306 0.2149,-0.60196 0.078,-1.70373 -0.3038,-2.44839 -0.9976,-1.94467 1.1541,-3.63597 2.5247,-1.98449 0.5517,0.66477 0.7642,1.59526 0.4722,2.06777 -0.7698,1.24547 2.4871,1.06361 3.5336,-0.19731 0.5259,-0.63371 0.5892,-1.52161 0.1582,-2.21904 -0.4328,-0.70026 -0.3445,-1.83489 0.2219,-2.85307 0.5173,-0.92975 0.8206,-2.06082 0.6741,-2.5135 -0.1465,-0.45268 -0.371,-2.59034 -0.4989,-4.75038 -0.1879,-3.17286 0.07,-4.08933 1.3431,-4.77061 0.8666,-0.46379 1.9049,-0.63976 2.3074,-0.391 1.5441,0.95432 3.1042,-0.46521 2.72,-2.475 -0.2806,-1.46801 -0.919,-2.0164 -2.3471,-2.0164 -1.1951,0 -1.9617,0.4825 -1.9617,1.23458 0,0.67901 -0.3704,1.23458 -0.8231,1.23458 -1.4063,0 -0.9063,-1.79235 0.949,-3.40144 0.9746,-0.84528 2.2709,-1.53687 2.8807,-1.53687 0.6097,0 1.1086,-0.74074 1.1086,-1.6461 0,-1.963664 -2.868,-2.292447 -3.5898,-0.411529 -0.5891,1.535249 -2.4908,1.598749 -3.7147,0.123964 -0.7288,-0.878132 -0.2762,-1.380275 2.1626,-2.399377 1.6964,-0.708854 3.7262,-1.491384 4.5108,-1.738974 0.8746,-0.27602 1.2385,-0.939749 0.9407,-1.715871 -0.5814,-1.515284 -2.2283,-1.623404 -4.3686,-0.286821 -1.1208,0.699959 -2.11,0.736824 -3.4714,0.129372 -1.7708,-0.790181 -1.601,-0.950145 2.4316,-2.28954 3.484,-1.157221 4.577,-1.239453 5.5659,-0.418761 1.0002,0.830127 1.429,0.749706 2.2915,-0.429806 0.9552,-1.306343 1.1944,-1.092859 2.3993,2.141269 1.7593,4.722673 4.9762,15.137184 7.211,23.345494 0.986,3.62142 2.3041,7.78812 2.9291,9.25932 1.0542,2.4815 1.42,2.67583 5.0592,2.68751 6.4023,0.0206 7.0293,1.29542 1.3956,2.83738 -6.98,1.91044 -7.3423,2.20755 -7.4005,6.06977 -0.028,1.86506 -0.2887,3.62869 -0.5792,3.91919 -0.9974,0.9974 -8.3451,1.98802 -11.0215,1.48593 -2.3826,-0.44698 -2.737,-0.26627 -3.2154,1.63996 -0.5347,2.1304 -1.2422,2.63109 -2.2681,1.60518 z m 4.6562,-20.65645 c 0.2064,-0.3395 -0.4484,-1.23434 -1.455,-1.98852 -2.0889,-1.56502 -4.2807,-0.75736 -3.4957,1.28817 0.5081,1.32416 4.2496,1.85346 4.9507,0.70035 z m -2.0728,-7.41586 c 0.1976,-1.38518 -0.1484,-1.84346 -1.3918,-1.84346 -1.9699,0 -2.905,1.24496 -2.2388,2.98092 0.704,1.83469 3.3237,1.01397 3.6306,-1.13746 z m -0.6745,-5.95871 c 0,-0.91451 -0.5487,-1.6461 -1.2346,-1.6461 -0.6859,0 -1.2346,0.73159 -1.2346,1.6461 0,0.9145 0.5487,1.64611 1.2346,1.64611 0.6859,0 1.2346,-0.73161 1.2346,-1.64611 z m -659.00314,31.5905 c -0.51551,-1.34342 1.20835,-2.99046 2.37518,-2.26933 1.1041,0.68237 0.73104,2.57312 -0.60914,3.0874 -0.7397,0.28385 -1.47366,-0.0561 -1.76604,-0.81807 z m 463.49475,0.45372 c -0.29838,-0.4828 -0.33622,-1.08411 -0.0841,-1.33626 0.67707,-0.67707 2.99859,0.37986 2.99859,1.36518 0,1.11709 -2.21986,1.09506 -2.91452,-0.0289 z m -735.80313,-5.5009 c 0.48919,-3.56631 1.31028,-17.95847 1.57063,-27.53016 0.1079,-3.96697 1.34226,-6.20192 2.89522,-5.24212 0.92513,0.57175 0.69786,8.14306 -0.69344,23.10143 -1.0186,10.95133 -1.61685,13.58033 -3.09029,13.58033 -0.98009,0 -1.1135,-0.76466 -0.68212,-3.90948 z m 1010.52972,2.05761 c 0.5186,-1.55736 3.0868,-1.77877 3.0868,-0.26611 0,0.7635 -0.7037,1.29494 -1.7146,1.29494 -1.0058,0 -1.5731,-0.42537 -1.3722,-1.02883 z m -60.2881,-2.99838 c 0,-1.82469 1.5379,-2.5572 5.3686,-2.5572 4.3981,0 4.1137,1.455 -0.5553,2.84155 -5.2444,1.55744 -4.8133,1.58292 -4.8133,-0.28435 z m -242.79989,-2.96873 c -0.85603,-1.03144 -0.73718,-1.23457 0.72227,-1.23457 1.00408,0 1.74688,0.52496 1.74688,1.23457 0,0.67902 -0.32502,1.23457 -0.72226,1.23457 -0.39726,0 -1.18336,-0.55555 -1.74689,-1.23457 z m -159.67182,-0.4601 c 0,-0.47939 0.37037,-0.64272 0.82305,-0.36294 0.45268,0.27976 0.82306,0.672 0.82306,0.87161 0,0.19963 -0.37038,0.36296 -0.82306,0.36296 -0.45268,0 -0.82305,-0.39224 -0.82305,-0.87163 z m 455.14701,-0.36294 c -0.5636,-0.67902 -2.2974,-1.23458 -3.8531,-1.23458 -1.6761,0 -2.6212,-0.33534 -2.3198,-0.82305 0.2798,-0.45268 1.1828,-0.82305 2.0067,-0.82305 0.824,0 3.5379,-0.93387 6.0311,-2.07527 4.1413,-1.89598 4.6121,-2.38965 5.4493,-5.71429 1.5482,-6.14854 1.3234,-6.89229 -2.1702,-7.18144 -3.7345,-0.30909 -4.1445,-2.1953 -0.823,-3.78722 2.591,-1.24185 2.9145,-2.48272 0.823,-3.15741 -0.7921,-0.25557 -1.9959,-0.64287 -2.6749,-0.8607 -1.626,-0.52159 2.4116,-2.70499 5.7936,-3.13302 2.2762,-0.28807 2.4369,-0.1268 2.4369,2.44374 0,1.51369 -0.4629,2.93897 -1.0288,3.1673 -0.823,0.3321 -0.823,0.42813 0,0.48012 0.765,0.0483 1.0288,2.71567 1.0288,10.40168 0,6.81979 -0.2857,10.16009 -0.8399,9.81762 -0.4619,-0.2855 -1.9718,0.43339 -3.3553,1.59753 -2.8481,2.39648 -5.0048,2.68895 -6.5044,0.88204 z m -904.73075,-0.88394 c -0.25985,-0.25985 -4.40574,-0.75319 -9.21309,-1.09632 -7.03803,-0.50233 -9.21074,-0.97144 -11.1541,-2.40822 -1.32741,-0.9814 -3.54251,-1.78435 -4.92244,-1.78435 -1.37994,0 -6.7788,-2.03706 -11.99748,-4.52678 -5.21867,-2.48973 -9.75282,-4.5476 -10.07588,-4.57304 -1.12974,-0.0889 -8.78033,-9.81411 -10.71447,-13.61988 -1.80473,-3.55111 -1.9194,-4.527929 -1.52468,-12.988239 0.86321,-18.501738 2.23446,-23.278309 10.10037,-35.183365 4.35186,-6.586558 8.92714,-10.86519 14.13367,-13.217307 7.26277,-3.281051 11.28364,-5.065027 12.93231,-5.737814 0.90535,-0.369459 4.23871,-1.015466 7.40745,-1.435565 3.16875,-0.420114 7.3541,-1.170834 9.30078,-1.668273 4.10547,-1.049086 15.49309,-0.708151 17.87645,0.535196 0.89625,0.467563 3.85178,1.102538 6.56785,1.411084 6.22526,0.707164 8.82273,1.501305 18.51864,5.661813 16.02814,6.877677 22.52695,13.220497 29.27811,28.575423 2.60748,5.930479 2.8885,7.215192 2.39743,10.960305 -0.30595,2.333312 -1.08016,5.068137 -1.72046,6.077398 -0.64031,1.009261 -1.71349,4.157439 -2.38486,6.995936 -2.39199,10.113228 -3.70205,13.214278 -7.42189,17.568398 -7.72198,9.03867 -12.25795,12.39645 -20.10328,14.88154 -6.67471,2.11428 -12.74505,3.69789 -15.27149,3.98398 -1.35803,0.15379 -5.24695,0.66888 -8.64203,1.14466 -6.89919,0.96684 -12.65264,1.1577 -13.36691,0.44342 z m 748.86987,-2.20245 c -0.74862,-2.7935 -0.61626,-7.2017 0.21623,-7.2017 1.08463,0 1.73416,2.18316 1.73416,5.82867 0,3.51585 -1.15772,4.33087 -1.95039,1.37303 z m -60.87584,-0.39539 c -0.24156,-0.39087 -0.45792,-4.76739 -0.48078,-9.72561 -0.0228,-4.95821 -0.14009,-12.44097 -0.2605,-16.62834 -0.12045,-4.187368 0.0135,-7.61331 0.29761,-7.613215 1.46169,5.27e-4 2.43604,2.81799 2.4629,7.121835 0.0583,9.33995 -0.65209,26.62807 -1.11311,27.08909 -0.25679,0.2568 -0.66454,0.1471 -0.90612,-0.24376 z m -81.20763,-2.23095 c 0,-0.70575 0.37038,-1.28316 0.82306,-1.28316 0.45268,0 0.82305,0.34852 0.82305,0.77449 0,0.42595 -0.37037,1.00336 -0.82305,1.28314 -0.45268,0.27976 -0.82306,-0.0687 -0.82306,-0.77447 z m 39.98623,-1.17269 c -0.35454,-0.57367 -0.42235,-1.26531 -0.15069,-1.53698 0.73661,-0.73659 1.53974,0.34675 1.14189,1.54029 -0.27879,0.83636 -0.47264,0.83572 -0.9912,-0.003 z m 248.94732,-1.80043 c 0.6555,-0.41469 2.1363,-0.75965 3.2906,-0.76659 1.1543,-0.007 2.5014,-0.41524 2.9935,-0.90737 0.6443,-0.64432 1.0506,-0.64268 1.4514,0.005 0.6547,1.05933 -0.3149,1.42743 -5.2664,1.99931 -2.3882,0.27584 -3.2466,0.16072 -2.4691,-0.33116 z m -123.84362,-5.60703 c -0.35455,-0.57367 -0.42236,-1.2653 -0.15069,-1.53697 0.73661,-0.73661 1.53974,0.34675 1.14189,1.54029 -0.27879,0.83636 -0.47265,0.83571 -0.9912,-0.003 z m 129.38132,-1.79281 c -0.2023,-1.37796 -0.1133,-2.66265 0.1977,-2.85487 0.7808,-0.48255 2.584,3.65829 2.0027,4.59889 -0.9093,1.4712 -1.8364,0.73638 -2.2004,-1.74402 z m -271.83735,-1.60986 c -0.27978,-0.45268 -1.22755,-0.82304 -2.1062,-0.82304 -1.52441,0 -2.12725,-2.06024 -1.64429,-5.61949 0.0949,-0.69906 -0.53714,-0.99556 -1.75434,-0.82306 -1.51906,0.2153 -1.93021,0.8227 -2.03947,3.01284 -0.18366,3.68152 -0.56672,3.89112 -3.73388,2.04307 -2.57127,-1.50035 -2.72196,-1.85104 -2.8715,-6.68281 -0.0868,-2.80465 0.12707,-5.09937 0.47513,-5.09937 0.34814,0 0.51703,-2.626794 0.3753,-5.837333 -0.14246,-3.227248 0.15004,-6.599143 0.65414,-7.541069 0.876,-1.636828 0.95334,-1.604965 1.9694,0.811567 0.58168,1.383398 1.49318,4.613417 2.02555,7.177814 0.84642,4.077191 1.19183,4.630651 2.75142,4.408491 1.32737,-0.18907 1.75227,-0.780272 1.66144,-2.31167 -0.21059,-3.550109 -2.14231,-13.54982 -2.75029,-14.23703 -0.31954,-0.361173 -1.57423,-0.204129 -2.7882,0.348992 -2.04481,0.931679 -2.44766,0.77089 -5.47503,-2.185258 -3.88635,-3.794915 -4.10941,-5.671601 -0.87303,-7.345186 1.31714,-0.681128 2.54524,-1.689753 2.72913,-2.241401 0.55797,-1.67391 5.48487,0.874374 6.87027,3.553448 1.31767,2.548107 2.00191,2.84281 3.38626,1.458452 0.61151,-0.611494 1.06176,-0.624566 1.42224,-0.04123 0.29012,0.469401 -0.22363,1.255445 -1.14167,1.746774 -2.26475,1.212051 -2.098,2.186718 0.59423,3.473324 2.18624,1.044787 2.28107,1.361917 2.78215,9.304227 0.28531,4.52241 0.80294,11.833708 1.15029,16.247318 0.44255,5.62323 0.36341,8.02475 -0.26441,8.02475 -0.49279,0 -1.12487,-0.37038 -1.40464,-0.82306 z m 28.39525,-2.46914 c 0,-3.7442 0.94459,-4.25194 2.31494,-1.24434 1.07088,2.35031 0.5078,4.53654 -1.16842,4.53654 -0.78892,0 -1.14652,-1.02689 -1.14652,-3.2922 z m 120.55463,2.43309 c -0.77133,-1.24804 1.31927,-3.52292 2.31887,-2.5233 0.9231,0.92305 0.205,3.38241 -0.9876,3.38241 -0.44018,0 -1.03925,-0.3866 -1.33127,-0.85911 z m 86.14897,-0.71049 c -0.828,-0.51442 -0.867,-0.84811 -0.151,-1.29062 1.1294,-0.698 1.9772,-0.0802 1.5592,1.13629 -0.1713,0.49817 -0.7523,0.56184 -1.4082,0.15433 z m -265.53337,-0.82815 c -1.59085,-0.62153 -1.5874,-0.65753 0.15167,-1.58826 0.97866,-0.52376 2.35929,-0.95229 3.06808,-0.95229 1.79403,0 1.60781,-1.05085 -0.40949,-2.31067 -1.06493,-0.66506 -1.60203,-1.73634 -1.44034,-2.87289 0.20026,-1.40776 0.80908,-1.81238 2.72699,-1.81238 2.35272,0 2.45639,0.14559 2.19889,3.08752 -0.19527,2.23083 0.0902,3.22584 1.02881,3.58603 2.00457,0.76922 1.55139,1.71949 -1.2929,2.71102 -2.94305,1.02595 -3.74301,1.04609 -6.03171,0.15192 z m 67.88333,-0.12005 c 0,-0.47939 0.37036,-0.64272 0.82304,-0.36295 0.45268,0.27977 0.82306,0.672 0.82306,0.87162 0,0.19963 -0.37038,0.36296 -0.82306,0.36296 -0.45268,0 -0.82304,-0.39224 -0.82304,-0.87163 z m 112.05834,-4.02552 c 0.18106,-0.54322 0.5977,-0.95988 0.9259,-0.92594 0.9841,0.1018 0.7936,1.2307 -0.2675,1.58438 -0.54317,0.18107 -0.83947,-0.11518 -0.6584,-0.65844 z m 0.4991,-3.80821 c -0.8335,-0.83349 0.2815,-2.81735 1.5835,-2.81735 0.6842,0 1.0916,0.59418 0.9407,1.37214 -0.2856,1.47286 -1.6916,2.27783 -2.5242,1.44521 z m 121.2015,-0.55397 c 0.01,-0.56584 0.3619,-1.58127 0.7888,-2.2565 0.6034,-0.95446 0.9959,-1.00802 1.7632,-0.24064 0.7674,0.76736 0.7526,1.26958 -0.066,2.2565 -1.2717,1.53237 -2.5028,1.65156 -2.4855,0.24064 z m -986.65932,-4.73254 c 0,-1.584364 0.16938,-2.23252 0.3764,-1.440339 0.20702,0.792195 0.20702,2.088489 0,2.880689 -0.20702,0.79218 -0.3764,0.14403 -0.3764,-1.44035 z m 998.57132,-0.0884 c 0.178,-1.406679 0.5276,-2.761498 0.7768,-3.010711 0.2492,-0.249226 0.099,-0.879606 -0.3334,-1.400837 -1.116,-1.344694 -1.8797,-8.073587 -0.8437,-7.433285 0.4518,0.279237 0.8215,1.253039 0.8215,2.164021 0,0.910968 0.5555,2.211876 1.2346,2.890895 0.7634,0.7634 1.2345,2.782693 1.2345,5.291029 0,3.474868 -0.2304,4.056468 -1.607,4.056468 -1.3186,0 -1.5489,-0.45892 -1.2833,-2.55758 z m -313.1611,0.0399 c 0,-0.47939 0.37038,-0.642724 0.82305,-0.36295 0.45268,0.27977 0.82305,0.67201 0.82305,0.87162 0,0.19963 -0.37037,0.36296 -0.82305,0.36296 -0.45267,0 -0.82305,-0.39224 -0.82305,-0.87163 z M 709.00538,99.593721 c -0.54321,-0.543212 -0.98766,-1.469146 -0.98766,-2.057618 0,-1.333866 -1.81658,-1.393333 -3.10815,-0.101794 -1.73098,1.730971 -4.37159,-1.536291 -4.01905,-4.972818 0.33998,-3.313928 1.78631,-4.321783 2.58604,-1.802064 1.01012,3.182623 2.64607,1.857733 3.17016,-2.567372 0.43178,-3.645725 0.27056,-4.422549 -1.11993,-5.3965 -1.40548,-0.984428 -1.62433,-2.102755 -1.62433,-8.300522 0,-6.344631 0.19398,-7.283934 1.69818,-8.223318 1.06493,-0.665067 1.60202,-1.736351 1.44034,-2.872902 -0.21253,-1.493857 -0.87258,-1.856854 -3.7558,-2.065458 l -3.49797,-0.253092 v -4.528021 c 0,-2.809108 0.31244,-4.334923 0.82305,-4.019361 0.45268,0.279778 0.82306,1.182216 0.82306,2.005422 0,1.570588 2.33922,4.069245 2.64744,2.827899 0.098,-0.394942 0.19066,-3.86494 0.20576,-7.711131 l 0.0274,-6.993057 2.27673,-0.04137 c 1.93371,-0.03501 2.38739,0.398497 3.01124,2.877809 2.01099,7.992017 2.25018,13.86042 0.82991,20.361689 -1.31619,6.024852 -1.67867,15.531287 -0.7502,19.674357 0.62763,2.800564 0.63613,4.091942 0.0283,4.294556 -1.33917,0.446393 -1.03639,2.187165 0.78264,4.499686 1.32048,1.678722 1.48966,2.526492 0.84341,4.226249 -0.92654,2.437 -0.99757,2.4717 -2.33063,1.138619 z m 64.38379,-0.109229 c -0.28962,-0.754709 -0.26258,-2.020361 0.06,-2.812542 0.52326,-1.284767 0.68101,-1.237412 1.46039,0.438376 0.6292,1.352873 0.61238,2.140094 -0.06,2.812542 -0.69641,0.696402 -1.06771,0.584942 -1.46039,-0.438376 z m 52.3945,-1.526018 c -0.60741,-1.742421 -0.63905,-2.898276 -0.0942,-3.443083 1.1027,-1.102701 1.42256,-0.648927 2.10035,2.979603 0.71603,3.833306 -0.71604,4.164176 -2.00611,0.46348 z m 301.57833,1.799915 c 0.2798,-0.452679 0.879,-0.823044 1.3317,-0.823044 0.4527,0 0.5942,0.370365 0.3144,0.823044 -0.2798,0.452681 -0.879,0.823041 -1.3317,0.823041 -0.4527,0 -0.5942,-0.37036 -0.3144,-0.823041 z m -6.1729,-3.392984 c 0,-1.459453 0.2032,-1.578293 1.2346,-0.722264 0.679,0.56353 1.2346,1.349629 1.2346,1.746868 0,0.397254 -0.5556,0.722278 -1.2346,0.722278 -0.7096,0 -1.2346,-0.742799 -1.2346,-1.746882 z m -243.62296,0.100848 c 0,-0.452679 0.55557,-0.823044 1.23458,-0.823044 0.67902,0 1.23458,0.370365 1.23458,0.823044 0,0.452679 -0.55556,0.823058 -1.23458,0.823058 -0.67901,0 -1.23458,-0.370379 -1.23458,-0.823058 z m 30.22996,-2.143365 c -0.33006,-0.330067 -0.60014,-1.168035 -0.60014,-1.86214 0,-0.92642 0.2435,-1.018535 0.91565,-0.34637 0.5036,0.503603 0.77368,1.341571 0.60014,1.862154 -0.17352,0.520568 -0.58557,0.676436 -0.91565,0.346356 z M 825.37071,91.63842 c -0.35455,-0.573669 -0.42236,-1.265314 -0.15069,-1.536981 0.73659,-0.736594 1.53973,0.346762 1.14189,1.540293 -0.2788,0.83636 -0.47265,0.835711 -0.9912,-0.0027 z m 243.96619,-0.0684 c 0,-0.504982 -0.8333,-1.269166 -1.8518,-1.698175 -1.6014,-0.67453 -1.4623,-0.754424 1.0288,-0.59077 2.8431,0.186785 4.0915,2.117612 1.8518,2.864169 -0.5658,0.18861 -1.0288,-0.0703 -1.0288,-0.575224 z m 51.8522,-0.865113 c 0,-1.060821 0.4168,-1.644345 1.0288,-1.440338 0.5659,0.18861 1.0288,0.836766 1.0288,1.440338 0,0.603572 -0.4629,1.251714 -1.0288,1.440337 -0.612,0.204007 -1.0288,-0.379517 -1.0288,-1.440337 z M 957.60271,88.853036 c -0.45317,-0.565842 -0.81598,-3.150287 -0.80624,-5.743208 0.0151,-4.033313 0.26335,-4.79236 1.71807,-5.25407 3.03742,-0.964042 -5.73522,-3.841607 -10.16604,-3.334638 -2.03706,0.233085 -5.37041,0.173455 -7.40745,-0.132481 -2.90715,-0.436633 -3.75652,-0.925798 -3.94922,-2.274399 -0.13505,-0.944967 0.32796,-2.194032 1.02883,-2.775691 1.8131,-1.504753 1.58149,-3.068933 -0.75527,-5.10073 -1.11626,-0.970571 -1.80955,-2.120654 -1.54065,-2.555732 0.76134,-1.231883 -1.52479,-2.227166 -3.1356,-1.365094 -1.01337,0.542347 -1.61121,2.245213 -2.00253,5.703924 -0.5071,4.482288 -0.73533,4.930762 -2.50916,4.930762 -1.60946,0 -1.95132,-0.422843 -1.95132,-2.413679 0,-1.712397 0.49145,-2.56967 1.69142,-2.950525 2.63445,-0.836144 1.46468,-2.213337 -2.13606,-2.514825 -5.19902,-0.435322 -9.30695,0.472659 -11.86082,2.621607 l -2.37174,1.995676 -0.92288,-2.796374 c -0.50759,-1.538009 -1.64371,-3.448707 -2.5247,-4.245999 -1.93845,-1.754276 -1.43445,-4.727256 1.30162,-7.677983 1.80572,-1.947388 1.8529,-1.953174 2.71976,-0.333419 0.48519,0.906588 1.13156,3.20797 1.43638,5.114153 0.61941,3.873633 1.93565,4.8015 4.89707,3.452182 1.778,-0.810107 1.99038,-1.40254 1.90049,-5.301615 -0.0557,-2.414274 0.28923,-5.108124 0.76643,-5.986337 0.47719,-0.878213 1.06822,-2.244902 1.31339,-3.037084 0.24518,-0.792195 1.21742,-1.440337 2.16053,-1.440337 1.16529,0 1.99055,-0.791182 2.5755,-2.46916 0.4734,-1.358024 1.16828,-2.469146 1.54414,-2.469146 0.76815,0 4.09388,8.42677 4.09388,10.373117 0,2.234223 1.66074,4.441787 3.34153,4.441787 2.55677,0 3.1473,-2.991094 1.94992,-9.876598 -0.59041,-3.395093 -0.88138,-6.965818 -0.64662,-7.934956 0.23476,-0.969138 0.0204,-2.013263 -0.47632,-2.320267 -0.49674,-0.307005 -0.69008,-0.902966 -0.42963,-1.324363 0.67733,-1.095955 3.47098,-0.947441 3.85511,0.204953 0.37941,1.138214 3.10566,0.30841 3.10566,-0.945305 0,-0.466873 -0.55555,-0.848877 -1.23457,-0.848877 -1.60075,0 -1.60449,-2.151089 -0.005,-2.764946 0.67637,-0.25955 1.13934,-1.276873 1.02881,-2.26072 -0.39316,-3.499602 1.69122,-2.507453 2.25649,1.074074 0.65191,4.130494 4.29614,17.975449 4.88695,18.56626 0.91901,0.919025 3.08498,-0.769741 4.1081,-3.203009 l 1.0955,-2.60544 0.85378,2.798578 c 2.27034,7.441951 1.75846,9.218844 -2.96544,10.294183 -6.352,1.445948 -10.99464,3.045952 -11.30342,3.895546 -0.19082,0.525044 -0.0708,3.36204 0.26657,6.304454 l 0.61353,5.349821 4.10874,-0.06016 c 2.65712,-0.03893 5.63464,-0.811972 8.42773,-2.188097 2.37544,-1.170361 4.51369,-1.812879 4.75167,-1.427806 0.86041,1.392171 2.11406,9.887169 1.58534,10.742658 -0.29798,0.482136 -0.70588,3.320647 -0.90644,6.307807 -0.46186,6.878826 -1.31506,8.334912 -3.37602,5.761525 z m -14.19252,-46.70812 c 0,-0.452679 -0.3485,-0.823058 -0.77447,-0.823058 -0.42596,0 -1.00338,0.370379 -1.28316,0.823058 -0.27976,0.452679 0.0688,0.823044 0.77449,0.823044 0.70573,0 1.28314,-0.370365 1.28314,-0.823044 z m 0,-4.115262 c 0,-0.452665 -0.55555,-0.823044 -1.23457,-0.823044 -0.67902,0 -1.23457,0.370379 -1.23457,0.823044 0,0.452679 0.55555,0.823058 1.23457,0.823058 0.67902,0 1.23457,-0.370379 1.23457,-0.823058 z m 110.23091,50.097874 c -0.593,-1.107892 -1.4507,-1.550608 -2.4818,-1.280969 -0.8665,0.22661 -1.5756,0.07638 -1.5756,-0.33396 0,-0.410298 0.6482,-0.784651 1.4404,-0.831871 0.7921,-0.04718 2.8292,-0.172807 4.5267,-0.279035 3.3975,-0.212632 3.4358,-0.179633 2.2863,1.968288 -1.2432,2.32293 -3.1719,2.671152 -4.196,0.757547 z M 824.17577,87.954262 c -0.50417,-0.607506 -0.7068,-1.314427 -0.45027,-1.570953 0.25652,-0.256526 -0.26803,-0.699513 -1.16569,-0.984414 -0.89765,-0.284915 -1.83575,-1.048748 -2.08468,-1.697432 -0.46176,-1.203359 1.44585,-3.696216 2.82847,-3.696216 0.42034,0 0.76425,-1.172848 0.76425,-2.606332 0,-1.433483 0.25052,-2.355807 0.55672,-2.049614 0.43702,0.437011 0.99166,13.710108 0.57288,13.709621 -0.0577,-6.7e-5 -0.5175,-0.497168 -1.02168,-1.10466 z m -72.53636,-1.001664 c 0,-0.705731 0.37036,-1.05425 0.82304,-0.774472 0.45268,0.279764 0.82306,0.857178 0.82306,1.283145 0,0.425966 -0.37038,0.774472 -0.82306,0.774472 -0.45268,0 -0.82304,-0.577414 -0.82304,-1.283145 z m 316.87449,-1.186001 c 0,-0.452679 0.5556,-0.823058 1.2346,-0.823058 0.679,0 1.2345,0.370379 1.2345,0.823058 0,0.452679 -0.5555,0.823044 -1.2345,0.823044 -0.679,0 -1.2346,-0.370365 -1.2346,-0.823044 z m 52.2194,-0.89476 c -0.8482,-1.37238 1.0594,-2.946118 2.1948,-1.810716 0.9498,0.949739 0.3554,2.705476 -0.9159,2.705476 -0.3993,0 -0.9748,-0.402647 -1.2789,-0.89476 z M 969.314,84.084441 c -0.65678,-1.062686 1.17081,-3.406475 2.17318,-2.786992 0.40139,0.248077 0.72979,1.169928 0.72979,2.048574 0,1.686846 -2.00206,2.196113 -2.90297,0.738418 z m 160.2702,-0.12856 c -0.5432,-0.543212 -0.9876,-2.395079 -0.9876,-4.115248 0,-1.988268 -0.5765,-3.704058 -1.5825,-4.710061 -1.2825,-1.282523 -1.3605,-1.667623 -0.4115,-2.031797 0.644,-0.24713 1.1709,-1.016506 1.1709,-1.709733 0,-0.693226 0.3492,-1.260407 0.776,-1.260407 0.4267,0 0.7692,1.759265 0.761,3.909484 -0.01,2.150232 0.5685,5.286501 1.2817,6.969494 0.7131,1.683008 1.2966,3.257097 1.2966,3.497969 0,0.77454 -1.2874,0.467454 -2.3046,-0.549701 z M 878.33714,82.823196 c -0.8923,-1.07515 -0.87432,-1.425224 0.10504,-2.044247 1.68508,-1.065174 2.78686,-0.511147 3.09075,1.554149 0.31291,2.126521 -1.59481,2.419087 -3.19573,0.490098 z m 173.99976,-0.795818 c -0.2681,-0.698553 -0.2903,-1.467171 -0.049,-1.708057 0.2409,-0.240899 0.1273,-1.521232 -0.2524,-2.845189 -0.5816,-2.027755 -0.4559,-2.407191 0.7975,-2.407191 0.8183,0 1.9489,0.555555 2.5125,1.234573 0.5635,0.679019 1.5348,1.234573 2.1584,1.234573 1.7594,0 1.3372,2.447111 -0.7181,4.161711 -2.2708,1.894369 -3.8045,2.007991 -4.4485,0.32958 z m 3.8312,-2.845189 c 0,-0.452679 -0.1633,-0.823044 -0.3629,-0.823044 -0.1996,0 -0.5919,0.370365 -0.8716,0.823044 -0.2798,0.452679 -0.1164,0.823058 0.3629,0.823058 0.4794,0 0.8716,-0.370379 0.8716,-0.823058 z m -356.31592,1.165994 c 0.0395,-0.95881 0.23454,-1.153841 0.49727,-0.497263 0.23776,0.594136 0.20852,1.304018 -0.065,1.577509 -0.2735,0.273492 -0.46802,-0.212618 -0.43229,-1.080246 z m 346.43932,0.480108 c 0,-0.452679 0.5556,-0.823044 1.2346,-0.823044 0.679,0 1.2346,0.370365 1.2346,0.823044 0,0.452679 -0.5556,0.823058 -1.2346,0.823058 -0.679,0 -1.2346,-0.370379 -1.2346,-0.823058 z M 134.35143,77.535993 c 0,-0.452679 0.37038,-0.823045 0.82305,-0.823045 0.45268,0 0.82305,0.370366 0.82305,0.823045 0,0.452679 -0.37037,0.823057 -0.82305,0.823057 -0.45267,0 -0.82305,-0.370378 -0.82305,-0.823057 z m 910.68587,-0.854799 c -0.8296,-1.342329 1.0132,-3.007627 2.1121,-1.908685 0.5953,0.595204 0.4917,1.161938 -0.3382,1.850677 -0.8841,0.733768 -1.3469,0.748895 -1.7739,0.05799 z M 766.59778,74.808036 c -2.33208,-2.482395 -2.26231,-4.180421 0.2391,-5.819412 2.82647,-1.851975 4.16945,-1.668448 6.1421,0.839388 2.13535,2.714655 2.17713,4.928694 0.11382,6.032922 -2.50648,1.341423 -4.55815,1.008828 -6.49505,-1.052898 z m -641.5458,0.56161 c -1.06925,-1.069256 -0.62617,-5.241105 0.55664,-5.241105 1.60822,0 3.16841,2.125155 2.83421,3.860492 -0.29472,1.530357 -2.38858,2.382885 -3.39085,1.380613 z M 519.1276,75.20952 c -0.90536,-0.166344 -1.96135,-0.600273 -2.34666,-0.964271 -0.9486,-0.896152 0.13289,-5.489089 1.64966,-7.005846 1.43401,-1.434024 5.57063,-1.593407 9.13215,-0.351858 2.0619,0.71879 2.57395,1.41403 2.87935,3.909497 0.58562,4.785371 0.15015,5.212906 -5.04145,4.949607 -2.54482,-0.129101 -5.36769,-0.370771 -6.27305,-0.537129 z m 181.12616,-3.229113 c 0.77142,-5.315079 1.17956,-5.43373 1.17956,-0.342936 0,2.449923 -0.37026,4.25242 -0.87348,4.25242 -0.573,0 -0.67829,-1.344952 -0.30608,-3.909484 z m 356.96024,1.500184 c 0.6073,-2.322471 -1.2936,-3.115085 -3.9987,-1.66734 -1.4948,0.799982 -2.2589,0.840186 -2.9442,0.154935 -0.6853,-0.685264 -0.3071,-1.0589 1.457,-1.439526 1.3103,-0.282725 3.2636,-0.872644 4.3406,-1.310952 2.3769,-0.967287 2.3432,-0.998393 2.6958,2.487707 0.1899,1.877889 -0.099,2.939358 -0.8693,3.196628 -0.8385,0.279954 -1.0246,-0.108418 -0.6812,-1.421452 z M 845.32587,72.36233 c -1.76974,-1.46659 -2.10964,-2.304207 -1.74142,-4.29142 0.25163,-1.358024 0.78973,-2.891368 1.19576,-3.407435 0.40604,-0.516054 0.55365,-4.312375 0.32804,-8.436261 -0.22563,-4.1239 -0.11315,-7.497985 0.24994,-7.497985 0.75545,0 4.31264,23.882598 3.70391,24.867566 -0.61205,0.990308 -1.34305,0.748774 -3.73623,-1.234465 z m 84.91552,0.646886 c 0,-0.685873 0.73159,-1.234573 1.6461,-1.234573 0.9145,0 1.64609,0.5487 1.64609,1.234573 0,0.685872 -0.73159,1.234573 -1.64609,1.234573 -0.91451,0 -1.6461,-0.548701 -1.6461,-1.234573 z m -60.88191,-0.379382 c -0.66591,-0.421127 -0.99647,-0.979967 -0.73458,-1.24186 0.26189,-0.261893 0.94467,0.08828 1.51729,0.778298 1.18732,1.430645 0.95966,1.565478 -0.78271,0.463562 z M 718.5217,71.714364 c -0.78662,-0.458303 -1.83689,-1.593096 -2.33389,-2.521774 -0.73973,-1.382194 -0.56622,-2.047694 0.95641,-3.668476 2.29553,-2.443488 6.09742,-2.645387 7.30555,-0.38798 2.63298,4.919758 -1.29437,9.277852 -5.92807,6.57823 z m 399.7867,0.06029 c -0.2896,-0.468644 0.4192,-0.823058 1.6461,-0.823058 1.227,0 1.9358,0.354414 1.6461,0.823058 -0.2797,0.452679 -1.0205,0.823044 -1.6461,0.823044 -0.6255,0 -1.3663,-0.370365 -1.6461,-0.823044 z M 750.19868,70.745847 c 0.51854,-1.55738 3.08683,-1.778785 3.08683,-0.266124 0,0.763496 -0.70372,1.294933 -1.7147,1.294933 -1.00574,0 -1.57306,-0.425372 -1.37213,-1.028809 z M 917.23719,69.96394 c -1.47058,-1.470565 -1.19441,-3.12759 0.52126,-3.12759 2.02344,0 2.50855,0.607641 2.00929,2.516812 -0.48208,1.843526 -1.1392,2.002125 -2.53055,0.610778 z m -34.97861,-0.935058 c -0.55149,-1.437174 3.4784,-5.484736 5.4608,-5.484736 0.78163,0 1.63351,-0.553432 1.89307,-1.229841 0.71105,-1.852935 1.94555,-0.623931 1.94555,1.936857 0,1.240778 0.43829,2.694242 0.97395,3.229911 0.53567,0.535668 0.74549,1.202385 0.46628,1.481609 -0.85953,0.85953 -2.26327,-0.489395 -2.26327,-2.174904 0,-0.992565 -0.56379,-1.59753 -1.4888,-1.59753 -2.06681,0 -4.44238,1.885974 -4.1249,3.274765 0.35336,1.545728 -2.28638,2.065675 -2.86268,0.563869 z m -126.50393,-0.54643 c 0,-0.452679 0.37038,-0.823044 0.82305,-0.823044 0.45268,0 0.82306,0.370365 0.82306,0.823044 0,0.452679 -0.37038,0.823044 -0.82306,0.823044 -0.45267,0 -0.82305,-0.370365 -0.82305,-0.823044 z m 145.9776,-5.349834 c -0.26057,-0.679006 -0.23452,-1.858004 0.0579,-2.619999 0.48032,-1.251688 0.69708,-1.219973 2.24556,0.328512 1.78236,1.782354 1.47681,3.526073 -0.61786,3.526073 -0.66651,0 -1.42502,-0.555568 -1.68559,-1.234586 z m 145.75995,-2.112381 c -0.6987,-1.130562 -0.4876,-1.287403 2.6305,-1.954904 3.4747,-0.743853 4.2557,0.788721 0.9833,1.929489 -3.1502,1.098186 -2.9516,1.096793 -3.6138,0.02542 z m 79.9837,-2.825912 c -0.2606,-0.679018 -0.1151,-1.234586 0.3235,-1.234586 0.4384,0 0.7972,0.555568 0.7972,1.234586 0,0.679005 -0.1456,1.234573 -0.3235,1.234573 -0.1779,0 -0.5366,-0.555568 -0.7972,-1.234573 z M 902.25766,56.911167 c 0,-0.479392 0.37038,-0.642722 0.82306,-0.362944 0.45268,0.279765 0.82304,0.672003 0.82304,0.871616 0,0.199627 -0.37036,0.362957 -0.82304,0.362957 -0.45268,0 -0.82306,-0.392238 -0.82306,-0.871629 z m 142.79924,-5.712778 c -0.2797,-0.452679 0.091,-0.823045 0.8231,-0.823045 0.7324,0 1.1028,0.370366 0.823,0.823045 -0.2797,0.452679 -0.6501,0.823057 -0.823,0.823057 -0.1729,0 -0.5433,-0.370378 -0.8231,-0.823057 z M 843.78679,44.984184 c -0.87472,-1.053967 -0.82068,-1.514094 0.31075,-2.645522 1.27748,-1.27748 1.36964,-1.191625 1.36964,1.275886 0,3.000719 -0.19489,3.159561 -1.68039,1.369636 z M 1049.3142,44.07012 c -0.2991,-0.29911 -1.9088,-0.591243 -3.5772,-0.649184 -5.3218,-0.18481 -4.0959,-1.910833 1.806,-2.542875 5.7328,-0.613928 7.6135,0.07246 6.7026,2.446016 -0.4906,1.278494 -3.8854,1.792074 -4.9314,0.746043 z M 703.90246,38.989789 c 0,-2.090697 0.8775,-2.762699 2.18767,-1.675356 1.64464,1.364932 1.33522,3.184286 -0.54156,3.184286 -1.04752,0 -1.64611,-0.5487 -1.64611,-1.50893 z m 250.20739,-1.927313 c 0,-0.712963 -0.23148,-2.453721 -0.5144,-3.868333 -0.32204,-1.610169 -0.18208,-2.572033 0.37423,-2.572033 1.29926,0 2.18972,5.687131 1.06636,6.810488 -0.68621,0.68621 -0.92619,0.59031 -0.92619,-0.370122 z M 704.79049,34.257248 c 0.0395,-0.95881 0.23452,-1.153828 0.49726,-0.497263 0.23775,0.594149 0.20851,1.304031 -0.065,1.577523 -0.27349,0.273491 -0.46801,-0.212619 -0.43228,-1.08026 z m 425.12531,-5.059436 c -1.0521,-1.052033 -0.381,-1.885113 2.7284,-3.387448 l 3.2247,-1.557961 -0.2299,2.156039 c -0.1264,1.185823 -0.559,2.107818 -0.9612,2.048881 -0.4023,-0.05894 -1.5266,0.195195 -2.4986,0.564741 -0.972,0.369546 -1.9905,0.448632 -2.2634,0.175748 z m -177.38707,-5.64022 c 0.0395,-0.958808 0.23452,-1.153834 0.49726,-0.49726 0.23775,0.59414 0.20851,1.304021 -0.065,1.577514 -0.27349,0.273492 -0.46802,-0.212622 -0.43228,-1.080254 z"
         id="path3" />
    </g>
  </g>
  <g
     inkscape:groupmode="layer"
     id="layer2"
     inkscape:label="Text">
    <g
       id="g14"
       transform="translate(-5.3816117,1.0985994)">
      <text
         xml:space="preserve"
         style="font-style:normal;font-variant:normal;font-weight:500;font-stretch:normal;font-size:13.6363px;font-family:'JetBrains Mono';-inkscape-font-specification:'JetBrains Mono, Medium';font-variant-ligatures:normal;font-variant-caps:normal;font-variant-numeric:normal;font-variant-east-asian:normal;text-align:start;writing-mode:lr-tb;direction:ltr;text-anchor:start;fill:#ffffff;fill-opacity:1;stroke-width:0.122092;-inkscape-stroke:none"
         x="69.77726"
         y="111.25924"
         id="text2"><tspan
           sodipodi:role="line"
           id="tspan13"
           x="69.77726"
           y="111.25924">Well, certainly no one could have been</tspan><tspan
           sodipodi:role="line"
           x="69.77726"
           y="128.30461"
           id="tspan16">unaware of the very strange stories floating</tspan><tspan
           sodipodi:role="line"
           x="69.77726"
           y="145.34999"
           id="tspan18">around before we left. Rumors about something</tspan><tspan
           sodipodi:role="line"
           x="69.77726"
           y="162.39537"
           id="tspan19">being dug up on the moon.</tspan></text>
      <g
         id="g145"
         transform="matrix(0.0599709,0,0,0.0599709,376.95617,165.85593)"
         inkscape:label="hal9000">
        <rect
           x="130"
           y="117"
           width="1060"
           height="215"
           fill="#5c98c9"
           filter="url(#ar)"
           id="rect139" />
        <rect
           x="678"
           y="128"
           width="500"
           height="192"
           fill="#1b1717"
           filter="url(#aq)"
           id="rect140" />
        <use
           transform="translate(164)"
           xlink:href="#n"
           id="use140" />
        <use
           transform="translate(82)"
           xlink:href="#n"
           id="use141" />
        <path
           id="n"
           d="m 824,158 c -29,-1.9e-4 -37.03,29 -37.03,66.01 0,37.01 8.032,65.99 37.03,65.99 29,1.5e-4 36.97,-31 36.97,-66 0,-35 -7.968,-66 -36.97,-66 z m 0,8 c 25,1.9e-4 27.97,34 27.97,58 0,24 -2.968,58 -27.97,58 -25,-1.5e-4 -28.03,-34 -28.03,-58 0,-24 3.032,-58 28.03,-58 z m 0,8 c -11.05,0 -16.57,9.825 -18,25.5 -1.356,14.86 -1.395,30.22 0,46 1.386,15.68 6.954,26.5 18,26.5 11.05,0 16.69,-10.81 18,-26.5 1.351,-16.24 1.23,-31.55 0,-46 -1.335,-15.68 -6.954,-25.5 -18,-25.5 z m 0,9 c 7,0 8.155,6.501 8,19 v 41 c -4e-5,12.43 -1,20 -8,20 -7,0 -8,-7.574 -8,-20 -0.0407,-14.04 -0.0437,-27.74 0,-41 -0.1546,-12.43 1,-19 8,-19 z"
           fill="#fefefe"
           opacity="0.8" />
        <g
           fill="#ffffff"
           id="g144">
          <path
             d="m 743,158 c -19.88,0 -36,16.12 -36,36 v 14 c 0,19.88 16.12,36.01 36,36 3.806,-0.003 7,0 10,-2 0,15 -4,22 -10,22 -7,0 -11.72,-16.77 -12,-16.68 l -24,7.681 c 0,19 16.45,35 36,35 19.88,0 36,-16.12 36,-36 l -0.1111,-59.81 c -0.1602,-19.88 -16.01,-36.19 -35.89,-36.19 z m 0,8 c 15.31,0 28,13.42 28,30 l -0.2812,55.98 c -0.1943,16.58 -12.41,30.02 -27.72,30.02 -12.76,0 -22.96,-9.346 -26.46,-22.04 l 9.707,-2.988 c 2.453,8.47 8.397,14.46 16.69,14.46 11.05,0 18.12,-10.64 18.06,-23.6 v -21.83 c -1,4 -8,10 -18,10 -15.31,9.5e-4 -28,-13.42 -28,-30 v -10 c 0,-16.58 12.69,-30 28,-30 z m 0,8 c -11.05,0 -18,10.51 -18,23.48 v 6.348 c 0,12.97 6.892,23.6 17.94,23.6 11.048,0 18.12,-10.64 18.06,-23.6 l -0.0624,-6.225 c -0.0559,-12.97 -6.892,-23.6 -17.94,-23.6 z m 0,8 c 6.561,0 8,7.917 8,17.69 v 2.615 c 0,9.777 -1.439,17.69 -8,17.69 -6.561,0 -8,-7.915 -8,-17.69 v -2.615 c 0,-9.777 1.439,-17.69 8,-17.69 z"
             opacity="0.8"
             id="path141" />
          <path
             d="m 580,161 v 126 h 61 V 258 H 609.01 V 161 H 587 Z m 7,7 h 15.01 v 90 H 602 v 7 h 32 v 15 h -47 v -15 z"
             opacity="0.8"
             id="path142" />
          <path
             d="m 515,161 -22,126 h 25 l 3.316,-19 h 13.37 l 3.316,19 h 25 l -22,-126 h -19 z m 5.777,7 h 14.45 l 19.55,112 h -11.01 l -3.354,-19 h -24.82 l -3.354,19 h -11.01 z M 528,190.67 517,253 h 22 z m 0,39.06 2.842,16.28 h -5.684 z"
             opacity="0.8"
             id="path143" />
          <path
             d="m 410,161 v 126 h 29 v -58.5 h 13 V 287 h 30 V 161 h -30 v 46.5 H 439 V 161 h -22 z m 7,7 h 15 v 46.5 h 27 V 168 h 16 V 280 H 459 V 221.5 H 432 V 280 h -15 z"
             opacity="0.8"
             id="path144" />
        </g>
      </g>
    </g>
  </g>
</svg>
