<?xml version="1.0" encoding="UTF-8" standalone="no"?>
<!-- Created with Inkscape (http://www.inkscape.org/) -->

<svg
   width="1920"
   height="1080"
   viewBox="0 0 1920 1080"
   version="1.1"
   id="svg21"
   xml:space="preserve"
   inkscape:version="1.2.2 (b0a8486541, 2022-12-01)"
   sodipodi:docname="lcars.svg"
   inkscape:export-filename="lcars.png"
   inkscape:export-xdpi="96"
   inkscape:export-ydpi="96"
   xmlns:inkscape="http://www.inkscape.org/namespaces/inkscape"
   xmlns:sodipodi="http://sodipodi.sourceforge.net/DTD/sodipodi-0.dtd"
   xmlns="http://www.w3.org/2000/svg"
   xmlns:svg="http://www.w3.org/2000/svg"><sodipodi:namedview
     id="namedview23"
     pagecolor="#505050"
     bordercolor="#ffffff"
     borderopacity="1"
     inkscape:showpageshadow="0"
     inkscape:pageopacity="0"
     inkscape:pagecheckerboard="1"
     inkscape:deskcolor="#505050"
     inkscape:document-units="px"
     showgrid="false"
     inkscape:zoom="0.57762701"
     inkscape:cx="657.86397"
     inkscape:cy="372.21251"
     inkscape:window-width="1920"
     inkscape:window-height="1056"
     inkscape:window-x="0"
     inkscape:window-y="1080"
     inkscape:window-maximized="1"
     inkscape:current-layer="layer4" /><defs
     id="defs18"><rect
       x="644.63837"
       y="737.57914"
       width="648.36164"
       height="73.828465"
       id="rect12975" /><rect
       x="1195.6559"
       y="28.767611"
       width="572.3333"
       height="115.27711"
       id="rect4662" /><rect
       x="1195.6559"
       y="28.767611"
       width="620.88279"
       height="115.27711"
       id="rect4656" /><rect
       x="1195.6559"
       y="28.767611"
       width="572.33331"
       height="115.27711"
       id="rect4662-5" /><rect
       x="644.63837"
       y="737.57916"
       width="779.80442"
       height="54.076614"
       id="rect12975-6" /></defs><g
     inkscape:groupmode="layer"
     id="layer3"
     inkscape:label="background"
     sodipodi:insensitive="true"
     style="display:inline"><rect
       style="fill:#000000;fill-opacity:1;stroke:none"
       id="rect1213"
       width="1920"
       height="1080"
       x="0"
       y="3.0517578e-05" /></g><g
     inkscape:groupmode="layer"
     id="layer2"
     inkscape:label="albert-aligned layer"
     transform="translate(-959.07559,116.18224)"
     style="display:inline;fill:#cc4499;fill-opacity:1"
     sodipodi:insensitive="true"><path
       style="display:inline;fill:#ff7700;fill-opacity:1;stroke:none;stroke-width:0.763784"
       d="M 2252.0756,84.292769 V 49.211987 c 0,-26.529935 23.3052,-56.7270816 88.1306,-56.7270816 h 44.4181 V -90.477629 h -564.6452 c -137.8894,-0.748001 -233.9035,71.98729 -233.9035,139.689616 v 35.150752 z"
       id="path355-3"
       sodipodi:nodetypes="cssccsscc" /><path
       style="display:inline;fill:#ff7700;fill-opacity:1;stroke:none;stroke-width:0.763784"
       d="m 1586.0756,794.04736 v 35.0808 c 0,26.5299 -23.3052,21.7272 -88.1306,21.7272 h -44.4181 v 82.9626 h 564.6452 c 137.8894,0.748 233.9035,-36.9875 233.9035,-104.6898 v -35.1508 z"
       id="path355-3-2"
       sodipodi:nodetypes="cssccsscc" /><path
       id="rect4829"
       style="fill:#ff7700"
       d="m 2810.7236,-90.433846 h 21.0855 c 47.2665,0 47.2665,82.9187474 0,82.9187474 h -21.0855 z"
       sodipodi:nodetypes="csscc" /></g><g
     inkscape:groupmode="layer"
     id="layer5"
     inkscape:label="other UI"><path
       id="rect10334"
       style="display:inline;fill:#dd4444;fill-opacity:1"
       d="m 295.47273,967.03762 h 192.2581 v 82.97348 h -192.2581 z"
       sodipodi:nodetypes="ccccc" /><path
       id="rect10334-8"
       style="display:inline;fill:#9944ff;fill-opacity:1;stroke-width:1.03267"
       d="M 84.060863,967.03761 H 289.08814 v 82.97349 H 84.060863 Z"
       sodipodi:nodetypes="ccccc" /><path
       id="rect4829-2"
       style="display:inline;fill:#ff7700;fill-opacity:1"
       d="m 77.676273,1049.9837 h -21.08546 c -47.2665001,0 -47.2665001,-82.91871 0,-82.91871 h 21.08546 z"
       sodipodi:nodetypes="csscc" /><path
       style="display:inline;fill:#88ccff;fill-opacity:1;stroke:none;stroke-width:0.691304"
       d="m 1532.3505,785.44499 v -35.08078 c 0,-26.52994 19.0919,-56.72708 72.1978,-56.72708 h 315.1622 L 1920,640.29479 h -405.3405 c -112.9632,0 -191.9063,42.36709 -191.9063,110.06942 v 35.15075 z"
       id="path355-3-29"
       sodipodi:nodetypes="cssccsscc" /><path
       id="rect14273"
       style="font-variation-settings:normal;opacity:1;vector-effect:none;fill:#9944ff;fill-opacity:1;stroke-width:1.24113;stroke-linecap:butt;stroke-linejoin:miter;stroke-miterlimit:4;stroke-dasharray:none;stroke-dashoffset:0;stroke-opacity:1;-inkscape-stroke:none;stop-color:#000000;stop-opacity:1"
       d="m 1322.7532,791.82274 h 209.5973 v 88.0364 h -209.5973 z"
       sodipodi:nodetypes="ccccc" /><path
       id="rect14273-5-6-2"
       style="font-variation-settings:normal;vector-effect:none;fill:#ffaa90;fill-opacity:1;stroke-width:1.3849;stroke-linecap:butt;stroke-linejoin:miter;stroke-miterlimit:4;stroke-dasharray:none;stroke-dashoffset:0;stroke-opacity:1;-inkscape-stroke:none;stop-color:#000000"
       d="m 1322.7532,962.18025 h 209.5973 v 109.61355 h -209.5973 z"
       sodipodi:nodetypes="ccccc" /><path
       style="display:inline;fill:#f5f6fa;fill-opacity:1;stroke:none;stroke-width:0.691304"
       d="m 258.7723,527.08619 v 35.08078 c 0,26.52995 -19.0919,56.72708 -72.1978,56.72708 H 0 l -0.2895,53.34234 h 399.58349 c 112.9632,0 191.9063,-42.36709 191.9063,-110.06942 v -35.15075 z"
       id="path355-3-29-3-7"
       sodipodi:nodetypes="cssccsscc" /><path
       style="display:inline;fill:#f5f6fa;fill-opacity:1;stroke:none;stroke-width:0.691304"
       d="m 258.7723,200.47501 v -35.08078 c 0,-26.52995 -19.0919,-56.72708 -72.1978,-56.72708 H 0 L -0.2895,55.324809 h 399.58349 c 112.9632,0 191.9063,42.36709 191.9063,110.069421 v 35.15075 z"
       id="path355-3-29-3-7-5"
       sodipodi:nodetypes="cssccsscc" /><path
       id="rect14273-5-6"
       style="font-variation-settings:normal;vector-effect:none;fill:#ff5555;fill-opacity:1;stroke-width:1.09899;stroke-linecap:butt;stroke-linejoin:miter;stroke-miterlimit:4;stroke-dasharray:none;stroke-dashoffset:0;stroke-opacity:1;-inkscape-stroke:none;stop-color:#000000"
       d="m 1322.7532,886.44863 h 209.5973 v 69.0258 h -209.5973 z"
       sodipodi:nodetypes="ccccc" /></g><g
     inkscape:groupmode="layer"
     id="layer4"
     inkscape:label="text layer"><text
       xml:space="preserve"
       transform="matrix(1.1402377,0,0,1.1672121,71.752942,-24.112927)"
       id="text4660"
       style="font-style:normal;font-variant:normal;font-weight:normal;font-stretch:normal;font-size:96px;font-family:'LCARS Font';-inkscape-font-specification:'LCARS Font, Normal';font-variant-ligatures:normal;font-variant-caps:normal;font-variant-numeric:normal;font-variant-east-asian:normal;white-space:pre;shape-inside:url(#rect4662-5);display:inline;fill:#ffaa00;fill-opacity:1;stroke:none"><tspan
         x="1195.6562"
         y="112.76758"
         id="tspan387">LCARS ACCESS</tspan></text><text
       xml:space="preserve"
       style="font-style:normal;font-variant:normal;font-weight:normal;font-stretch:normal;font-size:26.62380028px;font-family:'LCARS Font';-inkscape-font-specification:'LCARS Font, Normal';fill:#000000;fill-opacity:1;stroke:none;stroke-width:0.554663;font-variant-ligatures:normal;font-variant-caps:normal;font-variant-numeric:normal;font-variant-east-asian:normal"
       x="172.14726"
       y="1039.8245"
       id="text12725"><tspan
         sodipodi:role="line"
         id="tspan12723"
         x="172.14726"
         y="1039.8245"
         style="stroke-width:0.554663;-inkscape-font-specification:'LCARS Font, Normal';font-family:'LCARS Font';font-weight:normal;font-style:normal;font-stretch:normal;font-variant:normal;font-size:26.62380028px;font-variant-ligatures:normal;font-variant-caps:normal;font-variant-numeric:normal;font-variant-east-asian:normal">XFCE LAUNCHER</tspan></text><text
       xml:space="preserve"
       style="font-style:normal;font-variant:normal;font-weight:normal;font-stretch:normal;font-size:26.6238px;font-family:'LCARS Font';-inkscape-font-specification:'LCARS Font, Normal';font-variant-ligatures:normal;font-variant-caps:normal;font-variant-numeric:normal;font-variant-east-asian:normal;fill:#000000;fill-opacity:1;stroke:none;stroke-width:0.554663"
       x="1521.2957"
       y="867.54773"
       id="text12725-3-8"><tspan
         sodipodi:role="line"
         id="tspan12723-1-4"
         x="1521.2957"
         y="867.54773"
         style="font-style:normal;font-variant:normal;font-weight:normal;font-stretch:normal;font-size:26.6238px;font-family:'LCARS Font';-inkscape-font-specification:'LCARS Font, Normal';font-variant-ligatures:normal;font-variant-caps:normal;font-variant-numeric:normal;font-variant-east-asian:normal;text-align:end;direction:ltr;text-anchor:end;stroke-width:0.554663">SUBSPACE COMM</tspan></text><text
       xml:space="preserve"
       style="font-style:normal;font-variant:normal;font-weight:normal;font-stretch:normal;font-size:26.6238px;font-family:'LCARS Font';-inkscape-font-specification:'LCARS Font, Normal';font-variant-ligatures:normal;font-variant-caps:normal;font-variant-numeric:normal;font-variant-east-asian:normal;fill:#000000;fill-opacity:1;stroke:none;stroke-width:0.554663"
       x="1409.5304"
       y="773.81873"
       id="text12725-3"><tspan
         sodipodi:role="line"
         id="tspan12723-1"
         x="1409.5304"
         y="773.81873"
         style="font-style:normal;font-variant:normal;font-weight:normal;font-stretch:normal;font-size:26.6238px;font-family:'LCARS Font';-inkscape-font-specification:'LCARS Font, Normal';font-variant-ligatures:normal;font-variant-caps:normal;font-variant-numeric:normal;font-variant-east-asian:normal;stroke-width:0.554663">SYSTEM STATUS</tspan></text><text
       xml:space="preserve"
       style="font-style:normal;font-variant:normal;font-weight:normal;font-stretch:normal;font-size:26.6238px;font-family:'LCARS Font';-inkscape-font-specification:'LCARS Font, Normal';font-variant-ligatures:normal;font-variant-caps:normal;font-variant-numeric:normal;font-variant-east-asian:normal;fill:#000000;fill-opacity:1;stroke:none;stroke-width:0.554663"
       x="578.06079"
       y="188.77406"
       id="text12725-3-8-0-35"><tspan
         sodipodi:role="line"
         id="tspan12723-1-4-3-6"
         x="578.06079"
         y="188.77406"
         style="font-style:normal;font-variant:normal;font-weight:normal;font-stretch:normal;font-size:26.6238px;font-family:'LCARS Font';-inkscape-font-specification:'LCARS Font, Normal';font-variant-ligatures:normal;font-variant-caps:normal;font-variant-numeric:normal;font-variant-east-asian:normal;text-align:end;direction:ltr;text-anchor:end;stroke-width:0.554663">CHRONOMETER</tspan></text><text
       xml:space="preserve"
       style="font-style:normal;font-variant:normal;font-weight:normal;font-stretch:normal;font-size:26.62380028px;font-family:'LCARS Font';-inkscape-font-specification:'LCARS Font, Normal';fill:#000000;fill-opacity:1;stroke:none;stroke-width:0.554663;font-variant-ligatures:normal;font-variant-caps:normal;font-variant-numeric:normal;font-variant-east-asian:normal"
       x="1521.1849"
       y="945.91547"
       id="text12725-3-8-0-3"><tspan
         sodipodi:role="line"
         id="tspan12723-1-4-3-2"
         x="1521.1849"
         y="945.91547"
         style="text-align:end;direction:ltr;text-anchor:end;stroke-width:0.554663;-inkscape-font-specification:'LCARS Font, Normal';font-family:'LCARS Font';font-weight:normal;font-style:normal;font-stretch:normal;font-variant:normal;font-size:26.62380028px;font-variant-ligatures:normal;font-variant-caps:normal;font-variant-numeric:normal;font-variant-east-asian:normal">ANTIMATTER SUPPLY</tspan></text><text
       xml:space="preserve"
       style="font-style:normal;font-variant:normal;font-weight:normal;font-stretch:normal;font-size:26.6238px;font-family:'LCARS Font';-inkscape-font-specification:'LCARS Font, Normal';font-variant-ligatures:normal;font-variant-caps:normal;font-variant-numeric:normal;font-variant-east-asian:normal;fill:#000000;fill-opacity:1;stroke:none;stroke-width:0.554663"
       x="354.19284"
       y="1039.983"
       id="text12725-9"><tspan
         sodipodi:role="line"
         id="tspan12723-7"
         x="354.19284"
         y="1039.983"
         style="font-style:normal;font-variant:normal;font-weight:normal;font-stretch:normal;font-size:26.6238px;font-family:'LCARS Font';-inkscape-font-specification:'LCARS Font, Normal';font-variant-ligatures:normal;font-variant-caps:normal;font-variant-numeric:normal;font-variant-east-asian:normal;stroke-width:0.554663">TERMINAL ACCESS</tspan></text><text
       xml:space="preserve"
       style="font-style:normal;font-variant:normal;font-weight:normal;font-stretch:normal;font-size:26.62380028px;font-family:'LCARS Font';-inkscape-font-specification:'LCARS Font, Normal';fill:#000000;fill-opacity:1;stroke:none;stroke-width:0.554663;font-variant-ligatures:normal;font-variant-caps:normal;font-variant-numeric:normal;font-variant-east-asian:normal"
       x="1521.1849"
       y="1062.0765"
       id="text12725-3-8-0-3-7"><tspan
         sodipodi:role="line"
         id="tspan12723-1-4-3-2-0"
         x="1521.1849"
         y="1062.0765"
         style="text-align:end;direction:ltr;text-anchor:end;stroke-width:0.554663;-inkscape-font-specification:'LCARS Font, Normal';font-family:'LCARS Font';font-weight:normal;font-style:normal;font-stretch:normal;font-variant:normal;font-size:26.62380028px;font-variant-ligatures:normal;font-variant-caps:normal;font-variant-numeric:normal;font-variant-east-asian:normal">SENSOR DATA</tspan></text></g><g
     inkscape:groupmode="layer"
     id="layer6"
     inkscape:label="UFP logo"><g
       id="g12971"
       transform="matrix(1.1046206,0,0,1.1046206,-341.50815,-15.033498)"><path
         style="fill:#fafafa"
         d="m 1118.7868,667.65991 c -0.4018,-0.65013 -2.9817,-2.96146 -5.733,-5.1363 l -5.0026,-3.95426 8.8398,-0.0309 c 15.0898,-0.0527 28.3398,-2.4773 28.3398,-5.18585 0,-1.51425 -8.5298,-4.76979 -17.739,-6.77035 -8.857,-1.92404 -29.7231,-4.38046 -47.3982,-5.57986 -5.3004,-0.35969 -12.4887,-1.43452 -15.9738,-2.38852 -5.8268,-1.595 -6.1585,-1.82987 -4.1231,-2.91918 3.4475,-1.84506 5.5319,-6.79173 4.9684,-11.79105 -0.2687,-2.38386 -0.3574,-4.33429 -0.1972,-4.33429 0.1603,0 4.4558,1.5892 9.5457,3.53155 11.2265,4.28422 28.0919,8.81682 40.9172,10.9966 10.456,1.77708 26.8483,7.74118 34.5513,12.57099 5.9897,3.75552 10.4487,7.82555 10.4487,9.53706 0,2.09913 -6.622,6.47338 -13.7635,9.0916 -7.8305,2.8708 -26.3875,4.4548 -27.6805,2.36276 z m 98.944,-0.19078 c -9.773,-2.19724 -21.5,-8.39888 -21.5,-11.3699 0,-2.31328 7.8376,-8.24282 16.3851,-12.39619 10.5839,-5.14283 19.1461,-7.97192 29.6149,-9.78525 15.5874,-2.69992 34.5045,-8.12759 48.3624,-13.87613 1.6571,-0.68739 1.7862,-0.42524 1.1706,2.37756 -1.0065,4.58262 0.1994,8.65121 3.5292,11.90669 l 2.9262,2.86091 -6.7442,1.68702 c -3.7093,0.92786 -13.2692,2.14595 -21.2442,2.70688 -39.836,2.8019 -65.324,9.07188 -56.25,13.83732 2.7739,1.45678 9.8349,2.41937 22.4356,3.05855 l 11.6856,0.59276 -5.959,4.75 c -5.9167,4.7162 -6.0105,4.74929 -13.1857,4.64955 -3.9746,-0.0553 -9.0265,-0.50514 -11.2265,-0.99977 z M 1017.7309,627.9893 c -8.5496,-1.89813 -19.62195,-7.15099 -25.00002,-11.86031 l -4,-3.50261 5,0.72148 c 6.39852,0.9233 29.85672,0.84263 34.71182,-0.11935 4.3536,-0.86262 4.381,-0.9589 5.3032,-18.63268 0.3293,-6.31044 0.7485,-11.62338 0.9317,-11.80653 0.5595,-0.55952 10.1411,14.23826 12.9911,20.06348 3.3191,6.78397 5.5347,14.90729 5.5503,20.34994 0.015,5.14925 -0.4364,5.31072 -16.4881,5.90008 -8.5963,0.31563 -13.9855,-2e-4 -19,-1.1135 z m 291.6649,0.62636 c -4.3642,-0.70809 -6.1214,-2.18249 -6.1497,-5.15982 -0.04,-4.19021 2.3106,-12.9857 5.0135,-18.76178 3.1732,-6.78082 12.914,-22.12471 14.0456,-22.12471 0.3705,0 0.8697,6.5143 1.1092,14.47623 0.2395,7.96193 0.6644,14.70507 0.9441,14.98477 2.306,2.30604 32.43,3.04643 40.8723,1.00455 4.5266,-1.09482 -4.7392,6.4258 -12.5284,10.1687 -11.4677,5.51053 -29.1106,7.71537 -43.3066,5.41206 z m -155.536,-10.52816 c -40.002,-5.72577 -74.4427,-22.26832 -102.9281,-49.43841 -26.6105,-25.38179 -45.3293,-59.75477 -52.86749,-97.07974 -2.04356,-10.11859 -2.31985,-14.32289 -2.3001,-35 0.0207,-21.67875 0.23087,-24.47328 2.7116,-36.05836 8.08889,-37.77522 25.96399,-69.82563 53.58989,-96.08726 13.5561,-12.8867 26.0232,-21.55415 43.6652,-30.35709 16.8385,-8.40197 28.0707,-12.32795 46.4406,-16.23223 11.4042,-2.42382 14.5831,-2.67178 34.5594,-2.69565 17.1152,-0.0204 24.2204,0.38064 32,1.80638 50.1158,9.18453 93.3205,37.56206 121.2274,79.62421 35.6176,53.68374 39.8502,124.02097 10.9328,181.68056 -9.5686,19.07929 -18.3952,31.16428 -34.605,47.37983 -19.5302,19.53719 -35.9073,30.60654 -59.6077,40.28906 -12.1806,4.97628 -25.3959,8.77606 -38.9475,11.19858 -12.5512,2.24367 -41.3503,2.76229 -53.871,0.97012 z m 52.4957,-10.61513 c 46.3572,-7.85518 87.9957,-34.76775 114.3411,-73.90302 20.7958,-30.89153 30.8354,-66.62384 29.2385,-104.06392 -2.8189,-66.08868 -43.9767,-125.31028 -105.2043,-151.37755 -20.9934,-8.93779 -37.5205,-12.49916 -61.5,-13.25239 -25.0133,-0.7857 -43.8498,2.17465 -66,10.37253 -54.9455,20.33568 -96.334,68.38192 -108.8368,126.34427 -9.45673,43.84077 -0.1848,93.09124 24.5221,130.25564 27.0222,40.64716 70.6066,68.78694 117.9424,76.14799 14.2513,2.21618 40.8069,1.96566 55.497,-0.52355 z m -48.1247,-4.53675 c -17.0893,-2.11463 -38.467,-8.55333 -53.7234,-16.18082 -47.0417,-23.51872 -79.231,-65.10918 -90.3096,-116.68545 -2.7311,-12.71462 -3.7865,-41.42506 -2.0168,-54.86212 8.4481,-64.14416 52.2314,-117.50459 112.9506,-137.65716 52.0266,-17.26755 106.1256,-9.09864 151.5992,22.8914 10.7948,7.59397 30.4852,27.48606 38.7311,39.12788 35.5594,50.20357 40.4727,116.70657 12.7176,172.13647 -22.7233,45.38071 -65.1388,77.98644 -115.6874,88.93138 -7.7389,1.67565 -14.0086,2.17757 -30.2613,2.42253 -11.275,0.16994 -22.075,0.11409 -24,-0.12411 z m 44.4896,-3.88368 c 36.5285,-5.50555 68.5302,-22.07584 94.046,-48.69654 21.0385,-21.94941 34.4505,-46.22744 41.5113,-75.14227 7.3139,-29.95171 6.0514,-61.37427 -3.638,-90.54562 -31.8331,-95.83837 -141.3909,-140.59903 -231.4196,-94.54822 -15.7509,8.05681 -26.7696,16.23051 -41.0438,30.44662 -23.7196,23.62286 -38.1046,50.32767 -45.2092,83.92778 -1.9288,9.12165 -2.2304,13.53163 -2.194,32.07566 0.036,18.47329 0.361,22.97816 2.3066,32 9.7106,45.02906 35.5561,82.59164 73.7554,107.19233 7.4975,4.82846 23.9566,12.62588 34.1143,16.16155 8.8207,3.07029 24.9348,6.87374 33.7814,7.97351 8.3196,1.03425 34.9106,0.52358 43.9896,-0.8448 z m -6.4957,-12.98989 c -1.1065,-1.33326 -1.0633,-1.85183 0.2645,-3.17963 2.1445,-2.1445 4.9719,-0.95307 4.5617,1.92224 -0.3907,2.73897 -3.0266,3.42572 -4.8262,1.25739 z m -109.6322,-24.9927 c -0.7922,-2.06442 0.2819,-4.5 1.9845,-4.5 0.7749,0 1.9692,0.675 2.6538,1.5 0.9932,1.19672 0.9932,1.80328 0,3 -0.6846,0.825 -1.8789,1.5 -2.6538,1.5 -0.7749,0 -1.6679,-0.675 -1.9845,-1.5 z m 103.2097,-8.07143 c -1.9861,-1.98615 -0.8652,-4.61256 1.8059,-4.23144 2.5406,0.3625 3.4572,4.26865 1.2045,5.1331 -0.8381,0.32164 -2.1928,-0.0841 -3.0104,-0.90166 z m -70.3714,-2.62857 c -3.2022,-3.20225 0.177,-7.86055 4.3297,-5.96846 3.8524,1.75529 2.6973,7.16846 -1.5297,7.16846 -0.88,0 -2.14,-0.54 -2.8,-1.2 z m 61.1319,-6.37754 c -0.333,-0.86765 0.1312,-2.31408 1.0314,-3.21429 1.5156,-1.51566 1.7578,-1.51566 3.2734,0 2.0445,2.04448 1.1061,4.79183 -1.6367,4.79183 -1.1345,0 -2.3352,-0.70989 -2.6681,-1.57754 z m 25.7213,0.14159 c -1.7024,-2.05118 -0.5594,-6.26861 1.9114,-7.0528 3.4162,-1.08429 6.1931,1.19906 5.8438,4.80519 -0.2658,2.74427 -0.7341,3.2251 -3.3936,3.48463 -1.8686,0.18235 -3.5885,-0.30541 -4.3616,-1.23702 z m -96.3834,-1.98224 c -0.7569,-1.97255 1.9395,-4.66898 3.9121,-3.91204 2.2527,0.86445 1.3361,4.7706 -1.2046,5.1331 -1.2009,0.17135 -2.3767,-0.35892 -2.7075,-1.22106 z m -39.5181,-3.46695 c -1.9728,-1.25023 -0.9741,-4.56569 1.4813,-4.91773 2.5075,-0.35951 3.9279,2.42217 2.2619,4.42962 -1.3182,1.58826 -1.8896,1.66278 -3.7432,0.48811 z m 11.2383,-0.54095 c -0.9098,-2.37089 0.3775,-4.76534 2.357,-4.38412 1.107,0.21319 1.753,1.24877 1.753,2.81021 0,2.85063 -3.1562,4.05931 -4.11,1.57391 z m 34.2154,-3.87322 c -1.1822,-0.86443 -1.6645,-2.28694 -1.4411,-4.25 0.2721,-2.39143 0.8684,-3.01177 3.1462,-3.27295 5.0328,-0.57707 7.5369,3.83201 4.1181,7.25083 -1.9117,1.9117 -3.4807,1.98502 -5.8232,0.27212 z m 170.4345,-4.15265 c -1.883,-2.26881 -0.8563,-5.04804 1.8648,-5.04804 3.1544,0 4.9413,2.77569 3.1649,4.91618 -1.6381,1.97373 -3.4614,2.02153 -5.0297,0.13186 z m -89.6783,-5.04804 c -0.7922,-2.06442 0.282,-4.5 1.9846,-4.5 0.7749,0 1.9691,0.675 2.6538,1.5 0.9932,1.19672 0.9932,1.80328 0,3 -0.6847,0.825 -1.8789,1.5 -2.6538,1.5 -0.7749,0 -1.668,-0.675 -1.9846,-1.5 z m -60.0462,-1.50698 c -4.6897,-1.88953 -5.6368,-7.76245 -1.8608,-11.53847 4.4465,-4.44649 10.9135,-2.19623 12.1542,4.22916 0.4959,2.56806 0.1185,3.67998 -1.9516,5.75 -2.6736,2.67367 -4.6562,3.04427 -8.3418,1.55931 z m 68.3341,-4.46408 c -0.3105,-0.80908 0.1556,-2.19123 1.0359,-3.07143 1.4196,-1.41964 1.769,-1.43166 3.0942,-0.10648 0.8216,0.82164 1.2215,2.20378 0.8885,3.07143 -0.7634,1.9895 -4.2675,2.06385 -5.0186,0.10648 z m -111.2595,-1.95503 c -0.9098,-2.37089 0.3775,-4.76534 2.357,-4.38412 1.107,0.21319 1.753,1.24877 1.753,2.81021 0,2.85063 -3.1562,4.05931 -4.11,1.57391 z m 97.8483,-0.73559 c -2.1716,-2.17159 -1.4688,-5.77618 1.3792,-7.0738 2.3143,-1.05447 2.8386,-0.91953 4.5266,1.16508 1.677,2.07108 1.74,2.61372 0.5179,4.46404 -1.6477,2.49477 -4.6895,3.17886 -6.4237,1.44468 z m -148.0866,-1.72346 c -1.9728,-1.25023 -0.9741,-4.56569 1.4813,-4.91773 2.5075,-0.35951 3.9279,2.42217 2.2619,4.42962 -1.3182,1.58826 -1.8896,1.66278 -3.7432,0.48811 z m 32.046,-2.86486 c -3.1366,-2.7122 -3.5172,-5.57405 -1.1426,-8.59287 3.7618,-4.78231 10.9673,-2.52657 10.9296,3.42161 -0.019,2.98146 -0.8489,4.28721 -3.6689,5.77156 -2.9223,1.53819 -3.7374,1.45821 -6.1181,-0.6003 z m 35.8633,-1.21235 c -0.6918,-0.42752 -1.0958,-1.61821 -0.8979,-2.64599 0.4266,-2.21515 3.7648,-3.12645 4.8746,-1.33074 1.5952,2.58111 -1.3956,5.57194 -3.9767,3.97673 z m -12.6339,-2.80296 c -3.3584,-2.29966 -1.2469,-8.23469 2.9296,-8.23469 2.8131,0 4.6433,1.77376 4.6433,4.5 0,3.72814 -4.4078,5.90194 -7.5729,3.73469 z m 72.9054,-2.84992 c -1.5347,-2.34235 -1.5599,-2.89016 -0.2415,-5.25 2.7783,-4.97277 10.909,-3.20992 10.909,2.36523 0,5.37967 -7.6731,7.45469 -10.6675,2.88477 z m -41.9697,-0.88185 c -0.3456,-0.90055 -0.1664,-2.09931 0.3982,-2.66392 1.6301,-1.6301 4.739,-0.53146 4.739,1.6747 0,2.54367 -4.2283,3.35787 -5.1372,0.98922 z m 96.6372,-7.39468 c 0,-4.67974 -2.3957,-12.59481 -4.4269,-14.62603 -1.2051,-1.20509 -4.6395,-2.73236 -7.6321,-3.39393 -2.9925,-0.66157 -6.566,-1.45812 -7.941,-1.7701 -1.9015,-0.43146 -0.8243,-0.91267 4.5,-2.01021 11.2317,-2.31527 12.482,-3.67886 14.9535,-16.30797 1.1498,-5.8753 1.3418,-6.21168 1.9981,-3.5 0.3993,1.65 1.3793,5.7 2.1779,9 0.7985,3.3 1.9961,6.54153 2.6612,7.2034 1.3997,1.39291 11.9555,4.2966 15.6194,4.2966 4.2596,0 0.9314,1.61163 -5.7759,2.79682 -3.5011,0.61867 -7.4208,1.81618 -8.7104,2.66113 -2.3449,1.53644 -5.4238,9.57716 -5.4238,14.16453 0,1.24272 -0.45,2.5376 -1,2.87752 -0.55,0.33992 -1,-0.28637 -1,-1.39176 z m -67.3333,-5.77491 c -1.2238,-1.22382 -0.6857,-4.38878 0.8461,-4.97659 2.4229,-0.92977 4.639,1.49117 3.431,3.74827 -1.0165,1.89935 -3.0283,2.47712 -4.2771,1.22832 z m 149.9047,-0.90476 c -0.8643,-0.86428 -1.5714,-2.24387 -1.5714,-3.06574 0,-5.49935 6.578,-7.46264 9.592,-2.86283 1.5174,2.31587 1.5174,2.68413 0,5 -1.8835,2.87447 -5.6398,3.30936 -8.0206,0.92857 z m -193.2395,-3.00611 c -0.3329,-0.86765 0.1312,-2.31408 1.0314,-3.21429 1.5157,-1.51566 1.7578,-1.51566 3.2735,0 2.0445,2.04448 1.1061,4.79183 -1.6368,4.79183 -1.1345,0 -2.3351,-0.70989 -2.6681,-1.57754 z m 80.2101,0.23193 c -2.3285,-1.70264 -1.4038,-4.65439 1.458,-4.65439 2.6232,0 3.7131,2.71545 1.8413,4.58732 -1.2154,1.21532 -1.715,1.22548 -3.2993,0.0671 z m -93.1803,-1.15439 c -0.7922,-2.06442 0.2819,-4.5 1.9845,-4.5 0.7749,0 1.9692,0.675 2.6538,1.5 0.9932,1.19672 0.9932,1.80328 0,3 -0.6846,0.825 -1.8789,1.5 -2.6538,1.5 -0.7749,0 -1.6679,-0.675 -1.9845,-1.5 z m -67.4293,-6.62649 c -1.7448,-3.26019 0.2771,-6.87351 3.8462,-6.87351 3.3512,0 5.2215,1.61189 5.2215,4.5 0,2.87369 -1.8666,4.5 -5.1648,4.5 -1.7962,0 -3.1636,-0.745 -3.9029,-2.12649 z m 98.4576,-4.2996 c -0.9098,-2.37089 0.3775,-4.76534 2.357,-4.38412 1.107,0.21319 1.753,1.24877 1.753,2.81021 0,2.85063 -3.1562,4.05931 -4.11,1.57391 z m -51.2383,-2.45905 c -1.9729,-1.25023 -0.9742,-4.56569 1.4813,-4.91773 2.5075,-0.35951 3.9279,2.42217 2.2619,4.42962 -1.3182,1.58826 -1.8897,1.66278 -3.7432,0.48811 z m 92.0233,-0.40402 c -0.8598,-1.03597 -0.8306,-1.79955 0.1183,-3.09731 1.7021,-2.3277 4.9156,-1.07814 4.5096,1.75353 -0.3599,2.50993 -3.0192,3.28212 -4.6279,1.34378 z m -49.0716,-2.503 c -0.1936,-4.29303 -3.2676,-17.6248 -4.7047,-20.40388 -2.0201,-3.90636 -5.8826,-5.58271 -17.386,-7.54569 l -10.0276,-1.71112 10.7385,-2.25081 c 5.9062,-1.23795 11.872,-3.09154 13.2575,-4.11909 2.9736,-2.20551 4.5727,-6.49895 6.9068,-18.54444 l 1.7182,-8.86719 2.1744,11.02056 c 1.1959,6.06131 2.6956,12.16464 3.3328,13.56295 1.4586,3.2014 6.1732,5.10901 18.0842,7.31726 l 9.3025,1.72465 -4.5,0.79759 c -12.9468,2.2947 -19.4794,4.19987 -21.5703,6.29079 -1.4733,1.47332 -2.7902,4.90332 -3.8871,10.12439 -2.7254,12.97258 -3.3237,15.16515 -3.4392,12.60403 z m 34.0166,-0.98366 c -1.2415,-2.31973 0.3678,-5.22418 2.8946,-5.22418 2.503,0 4.1244,3.00035 2.851,5.27582 -1.255,2.24245 -4.5336,2.21298 -5.7456,-0.0516 z m 24.08,-1.42418 c -0.66,-0.66 -1.2,-2.595 -1.2,-4.3 0,-1.705 0.54,-3.64 1.2,-4.3 0.66,-0.66 2.595,-1.2 4.3,-1.2 1.705,0 3.64,0.54 4.3,1.2 0.66,0.66 1.2,2.595 1.2,4.3 0,1.705 -0.54,3.64 -1.2,4.3 -0.66,0.66 -2.595,1.2 -4.3,1.2 -1.705,0 -3.64,-0.54 -4.3,-1.2 z m 25.5012,-0.4321 c -1.2932,-1.29319 -0.718,-4.14748 0.966,-4.79369 2.1076,-0.80877 3.6271,0.65929 3.1651,3.05809 -0.3672,1.90665 -2.8971,2.96956 -4.1311,1.7356 z m -176.7011,-2.3679 c -2.4075,-2.40751 -2.4467,-2.91734 -0.4433,-5.77749 1.6935,-2.41791 5.334,-2.93181 7.2433,-1.02251 1.9093,1.9093 1.3954,5.54973 -1.0225,7.2433 -2.8602,2.00333 -3.37,1.96421 -5.7775,-0.4433 z m 233.7087,1.37552 c -1.5488,-1.54884 -0.6698,-5.25314 1.4027,-5.91091 2.9459,-0.935 5.7693,1.91133 4.2694,4.30415 -1.1544,1.84167 -4.4917,2.78706 -5.6721,1.60676 z m -33.7149,-9.88282 c -1.1065,-1.33326 -1.0633,-1.85183 0.2645,-3.17963 2.1445,-2.1445 4.9719,-0.95307 4.5617,1.92224 -0.3907,2.73897 -3.0266,3.42572 -4.8262,1.25739 z m -79.6139,-0.94481 c -0.7686,-2.00314 0.3721,-3.54789 2.62,-3.54789 2.3013,0 3.2091,1.2917 2.3963,3.40976 -0.7637,1.99004 -4.2686,2.08655 -5.0163,0.13813 z m 23.9816,-2.04789 c -0.7922,-2.06442 0.282,-4.5 1.9846,-4.5 0.7749,0 1.9691,0.675 2.6538,1.5 0.9932,1.19672 0.9932,1.80328 0,3 -0.6847,0.825 -1.8789,1.5 -2.6538,1.5 -0.7749,0 -1.668,-0.675 -1.9846,-1.5 z m 125.197,-2.0843 c -0.9205,-0.92047 -1.4227,-2.32736 -1.1161,-3.12643 0.3066,-0.79906 0.5575,-1.64104 0.5575,-1.87106 0,-0.23001 1.1391,-0.41821 2.5314,-0.41821 2.8562,0 4.2925,2.47026 2.8063,4.8264 -1.4454,2.29144 -2.8979,2.47054 -4.7791,0.5893 z m -206.8919,-0.0824 c -1.2668,-1.26679 -0.6609,-4.12156 1.0109,-4.76309 0.9381,-0.35998 2.3328,0.0115 3.1641,0.84283 1.2214,1.22139 1.2571,1.76306 0.2,3.03674 -1.3503,1.62697 -3.2482,2.01026 -4.375,0.88352 z m 153.8919,-6.91763 c -0.9205,-0.92047 -1.4227,-2.32736 -1.1161,-3.12643 0.3066,-0.79906 0.5575,-1.64104 0.5575,-1.87106 0,-0.23001 1.1391,-0.41821 2.5314,-0.41821 2.8562,0 4.2925,2.47026 2.8063,4.8264 -1.4454,2.29144 -2.8979,2.47054 -4.7791,0.5893 z m -40.5187,-1.86766 c -2.0824,-2.50906 -0.845,-5.04801 2.4601,-5.04801 2.0663,0 3.0782,0.54822 3.3189,1.79804 0.397,2.06166 -1.4666,4.70196 -3.3189,4.70196 -0.6903,0 -1.7974,-0.65338 -2.4601,-1.45196 z m -34.8399,-0.74801 c -3.0941,-3.09411 0.2842,-8.70263 4.3112,-7.15731 2.2078,0.84719 3.4751,4.43252 2.3355,6.60731 -1.0516,2.00673 -4.8737,2.323 -6.6467,0.55 z m 54.3567,-3.02251 c -0.8562,-1.22237 -1.5567,-2.98971 -1.5567,-3.92742 0,-1.88765 4.494,-5.85007 6.6349,-5.85007 2.1689,0 5.3651,3.77989 5.3651,6.34501 0,5.21737 -7.4728,7.6735 -10.4433,3.43248 z m -158.5635,-0.28577 c -1.7671,-2.12917 -0.4336,-4.69355 2.2422,-4.31186 2.8838,0.41138 3.4662,3.37432 0.93,4.73166 -1.4762,0.79004 -2.2535,0.68718 -3.1722,-0.4198 z m 131.6735,-3.15839 c -1.2422,-1.2422 -0.6754,-5.11602 0.8333,-5.69496 3.3762,-1.29558 6.5862,2.34792 4.3948,4.98838 -1.1992,1.44497 -4.098,1.83674 -5.2281,0.70658 z m 39.9027,-4.90674 c -0.8631,-0.8632 -1.5625,-1.8748 -1.5541,-2.24802 0.084,-3.73931 6.2694,-4.19097 6.7954,-0.49623 0.4353,3.05763 -3.0848,4.9007 -5.2413,2.74425 z m -106.1894,-7.8787 c -0.7686,-2.00314 0.3721,-3.54789 2.62,-3.54789 2.3013,0 3.2091,1.2917 2.3963,3.40976 -0.7637,1.99004 -4.2686,2.08655 -5.0163,0.13813 z m 38.2457,-1.06503 c -3.523,-3.52298 -0.072,-9.31369 4.8188,-8.08615 2.8583,0.71739 4.4609,4.9365 2.8519,7.50807 -1.3826,2.20963 -5.7128,2.53597 -7.6707,0.57808 z m -128.1986,-0.24817 c -3.3584,-2.29966 -1.2469,-8.23469 2.9297,-8.23469 2.813,0 4.6433,1.77376 4.6433,4.5 0,3.72814 -4.4079,5.90194 -7.573,3.73469 z m 269.1443,-1.80612 c -2.1445,-2.14453 -1.9722,-4.75583 0.4589,-6.95597 2.9687,-2.68664 7.3472,-1.00576 7.8055,2.99649 0.5474,4.78006 -4.8553,7.36852 -8.2644,3.95948 z m -44.9123,-2.87447 c -1.3274,-3.45935 2.3088,-6.65555 5.0159,-4.40886 0.7818,0.64886 1.2873,2.11913 1.1233,3.26725 -0.372,2.60364 -5.2314,3.50726 -6.1392,1.14161 z m -23.7782,-2.44943 c -2.012,-1.62925 -2.2005,-2.2961 -1.3423,-4.75 1.7881,-5.11334 9.4614,-4.13115 9.4614,1.21107 0,2.02621 -3.2058,5.43426 -5.1117,5.43426 -0.3667,0 -1.72,-0.8529 -3.0074,-1.89533 z m 12.4286,-0.74059 c -0.8273,-2.15578 0.9492,-4.86408 3.1905,-4.86408 0.9801,0 2.2402,0.72633 2.8002,1.61408 1.5277,2.42194 0.1156,4.88592 -2.8002,4.88592 -1.4502,0 -2.8353,-0.71022 -3.1905,-1.63592 z m -49.0059,-6.62945 c -2.147,-12.19716 -3.439,-13.42014 -16.7737,-15.87715 l -6.7975,-1.2525 8.3017,-1.7859 c 5.1209,-1.10164 9.1562,-2.5887 10.532,-3.88116 2.1512,-2.02095 5.4339,-12.32723 5.4339,-17.0601 0,-3.78824 1.074,-1.36531 2.5586,5.77244 2.6806,12.88733 2.2959,12.54435 17.5649,15.6597 l 6.3765,1.301 -7.7055,1.32837 c -10.5141,1.81255 -13.3073,3.68092 -15.2419,10.19548 -0.8539,2.87551 -1.5595,6.15902 -1.5679,7.29669 -0.038,5.12786 -1.6606,4.1009 -2.6811,-1.69687 z m 85.2678,1.69394 c -2.1067,-2.10675 -1.9791,-4.02085 0.4286,-6.42857 2.2685,-2.26853 3.3179,-2.43543 6.0657,-0.96482 2.1923,1.17324 2.6358,5.86335 0.7343,7.76482 -1.6827,1.68275 -5.3635,1.49362 -7.2286,-0.37143 z m -69.9123,-4.87447 c -1.3274,-3.45935 2.3088,-6.65555 5.0159,-4.40886 0.7818,0.64886 1.2873,2.11913 1.1233,3.26725 -0.372,2.60364 -5.2314,3.50726 -6.1392,1.14161 z m -49.6085,-2.99311 c -2.5298,-3.04829 1.4621,-7.04023 4.5104,-4.51037 0.8445,0.7009 1.4013,2.21375 1.2373,3.36187 -0.3664,2.56446 -3.9742,3.28538 -5.7477,1.1485 z m 66,0 c -2.5298,-3.04829 1.4621,-7.04023 4.5104,-4.51037 0.8445,0.7009 1.4013,2.21375 1.2373,3.36187 -0.3664,2.56446 -3.9742,3.28538 -5.7477,1.1485 z m -205.8755,-4.85015 c -0.8598,-1.03597 -0.8306,-1.79955 0.1183,-3.09731 1.7021,-2.3277 4.9155,-1.07814 4.5095,1.75353 -0.3598,2.50993 -3.0192,3.28212 -4.6278,1.34378 z m 266.2089,-0.15243 c -1.0651,-2.77582 0.072,-5.05841 2.5207,-5.05841 3.1544,0 4.9413,2.77569 3.1649,4.91618 -1.6417,1.97813 -4.9493,2.06088 -5.6856,0.14223 z m -32.7249,-4.00431 c -1.2458,-3.2466 1.6484,-6.1408 4.895,-4.89497 0.9844,0.37777 1.4426,1.55753 1.25,3.21862 -0.2306,1.98809 -0.9383,2.69579 -2.9264,2.92635 -1.661,0.19263 -2.8408,-0.26555 -3.2186,-1.25 z m 13.3114,-4.08967 c -1.817,-2.1893 -0.062,-4.96443 3.1385,-4.96443 1.99,0 2.391,0.50313 2.391,3 0,2.28 -0.501,3.07158 -2.0875,3.29826 -1.1481,0.16404 -2.697,-0.43618 -3.442,-1.33383 z m -27.4437,-4.0805 c -0.8889,-0.88884 -1.4567,-2.09419 -1.2619,-2.67856 0.5874,-1.76226 3.358,-3.06405 5.0992,-2.3959 2.0933,0.80329 2.1332,5.28572 0.054,6.08354 -2.1205,0.81371 -2.0505,0.83187 -3.8914,-1.00908 z m -19.4068,-2.15975 c -1.2415,-2.31973 0.3678,-5.22418 2.8945,-5.22418 2.5031,0 4.1244,3.00035 2.851,5.27582 -1.2549,2.24245 -4.5335,2.21298 -5.7455,-0.0516 z m 77.63,0.69572 c -2.0102,-1.17086 -2.3487,-5.92122 -0.55,-7.7199 1.7672,-1.76719 5.2544,-1.46032 7.145,0.62874 2.1511,2.37688 2.0954,4.46269 -0.1737,6.51627 -2.0804,1.88271 -3.8967,2.04533 -6.4213,0.57489 z m -34.4405,-6.55582 c -0.8273,-2.15578 0.9492,-4.86408 3.1905,-4.86408 0.9801,0 2.2402,0.72633 2.8002,1.61408 1.5277,2.42194 0.1156,4.88592 -2.8002,4.88592 -1.4502,0 -2.8353,-0.71022 -3.1905,-1.63592 z m -7.7381,-9.93551 c -1.865,-1.86505 -2.0541,-5.54582 -0.3714,-7.22857 2.6542,-2.65422 8.8,-0.29966 8.8,3.37143 0,1.84691 -3.5817,5.42857 -5.4286,5.42857 -0.7857,0 -2.1357,-0.70714 -3,-1.57143 z m -154.2619,-10.06449 c -1.4732,-3.83917 3.8398,-6.65986 6.0236,-3.1979 0.7627,1.20912 0.6904,2.10064 -0.2635,3.25 -1.7105,2.06109 -4.9605,2.03169 -5.7601,-0.0521 z m 25.262,0.0645 c -2.1158,-2.11579 -1.9799,-4.74896 0.3541,-6.86124 2.5318,-2.29119 5.151,-1.68509 7.0069,1.62141 1.3707,2.44204 1.3385,2.85442 -0.3706,4.74292 -2.2321,2.46647 -4.8358,2.65155 -6.9904,0.49691 z m 145.0019,0.002 c -1.9491,-1.94915 -0.4494,-5.43058 2.3393,-5.43058 2.8818,0 4.4424,2.46788 3.1215,4.93608 -1.3178,2.46239 -3.3123,2.64299 -5.4608,0.49447 z m -198.6411,-3.55707 c -1.7448,-3.26019 0.2772,-6.87351 3.8463,-6.87351 3.3511,0 5.2214,1.61189 5.2214,4.5 0,2.87369 -1.8665,4.5 -5.1648,4.5 -1.7962,0 -3.1635,-0.745 -3.9029,-2.12649 z m 173.9028,-4.60919 c -2.2327,-0.50716 -3.148,-3.18243 -1.6899,-4.93933 1.6953,-2.04265 5.2957,-1.23855 5.6531,1.26252 0.3475,2.43223 -1.578,4.2186 -3.9632,3.67681 z m -97.352,-15.31769 c -0.4374,-1.37818 -0.1446,-2.71364 0.8027,-3.66092 2.3709,-2.37095 5.9029,-0.73995 5.5223,2.55013 -0.4146,3.58472 -5.2692,4.43729 -6.325,1.11079 z m 106.8264,-7.58255 c -1.4733,-3.83917 3.8398,-6.65986 6.0235,-3.1979 0.7627,1.20912 0.6904,2.10064 -0.2634,3.25 -1.7106,2.06109 -4.9605,2.03169 -5.7601,-0.0521 z m -155.1095,-22.56408 c -1.9921,-1.9921 -1.4499,-6.59586 0.9265,-7.8677 3.2602,-1.7448 6.8735,0.27714 6.8735,3.84626 0,3.35113 -1.6118,5.22144 -4.5,5.22144 -1.155,0 -2.64,-0.54 -3.3,-1.2 z m 80.8931,-1.18782 c -0.9207,-1.10941 -0.9529,-2.00566 -0.1273,-3.54826 1.9118,-3.57222 6.4429,-1.99089 5.8717,2.04917 -0.3989,2.82125 -3.8908,3.73252 -5.7444,1.49909 z m 29.9052,-6.61542 c -1.4381,-2.68713 0.3722,-5.22965 3.4142,-4.79502 3.077,0.43964 2.9948,6.1691 -0.095,6.60894 -1.4131,0.20117 -2.5832,-0.43823 -3.3194,-1.81392 z M 998.23088,600.444 c -16.61786,-1.91856 -29.32406,-7.7556 -37.77043,-17.35119 -2.33959,-2.65791 -4.13524,-4.95112 -3.99034,-5.09603 0.14491,-0.1449 2.63774,0.35242 5.53964,1.10517 6.98517,1.81193 17.3204,3.18214 30.46711,4.03922 l 10.74594,0.70058 2.0362,-4.60311 c 1.1199,-2.53171 3.3001,-9.44965 4.8449,-15.37321 l 2.8088,-10.7701 1.6338,4.98701 c 3.2773,10.00341 4.7429,18.24169 5.3518,30.08307 l 0.622,12.09606 -3.2697,0.65394 c -3.9831,0.79662 -9.1445,0.66869 -19.01972,-0.47141 z m 340.10222,0.45147 -2.3977,-0.50393 0.6186,-10.81262 c 0.6649,-11.62025 2.5916,-22.45851 5.528,-31.09745 l 1.8336,-5.39439 1.2802,5.49114 c 2.5375,10.88385 7.188,24.11262 8.6778,24.68428 2.4097,0.92472 29.0612,-1.55316 38.0496,-3.53759 8.0716,-1.78205 8.1771,-1.78025 7.1593,0.1216 -2.0382,3.80836 -10.4295,10.88161 -16.3351,13.76926 -3.3091,1.61805 -9.3916,3.7954 -13.5166,4.83856 -7.5059,1.89814 -26.3845,3.38969 -30.8977,2.44114 z M 971.36174,566.02835 c -19.02456,-4.12801 -34.91347,-17.84511 -45.12732,-38.959 -7.26442,-15.0169 -7.35395,-16.01804 -0.88804,-9.93101 15.81089,14.88443 40.20665,28.18908 49.97713,27.25588 2.92057,-0.27895 3.85802,-1.09078 6.63211,-5.74339 1.77691,-2.98018 4.68017,-9.47047 6.45169,-14.42287 2.97951,-8.32944 3.27965,-8.78527 4.00435,-6.08148 0.43088,1.60758 1.29986,7.5059 1.93106,13.10738 1.18763,10.53939 0.12545,27.93097 -2.05634,33.66952 -0.95593,2.51427 -1.34321,2.64201 -7.78075,2.56647 -3.72611,-0.0437 -9.64086,-0.7014 -13.14389,-1.4615 z M 1364.8363,566.74 c -1.2418,-2.00917 -2.7493,-15.51288 -2.7602,-24.72492 -0.013,-10.83994 1.9567,-27.11431 3.1188,-25.76985 0.3918,0.45327 1.9183,4.19912 3.3924,8.32412 1.474,4.125 4.176,10.2 6.0044,13.5 3.0059,5.42514 3.6688,6.02937 6.9184,6.30659 8.8211,0.75249 26.7849,-8.29398 43.954,-22.13505 11.8121,-9.52239 11.8534,-9.50873 6.6067,2.18499 -9.6435,21.49363 -27.7926,37.69355 -46.7247,41.70652 -7.2853,1.54424 -19.7036,1.91213 -20.5098,0.6076 z M 959.43259,524.54719 c -10.42537,-2.73128 -18.71979,-7.45017 -26.27968,-14.95114 -7.72886,-7.66862 -13.11816,-16.84331 -16.95233,-28.8595 -2.68859,-8.42596 -5.63556,-25.66961 -4.81017,-28.1458 0.2252,-0.67558 2.46123,1.85574 4.96897,5.62514 6.96473,10.46875 15.82612,21.09014 24.511,29.37922 7.87382,7.51499 19.63911,15.97424 22.21729,15.97424 2.34759,0 7.77357,-6.83159 12.04905,-15.17039 l 4.09416,-7.98516 -0.0183,5.32777 c -0.0241,7.01301 -2.50162,24.00265 -4.43894,30.44025 -1.64513,5.46669 -4.93804,10.4226 -6.86532,10.33247 -0.64758,-0.0303 -4.46165,-0.91548 -8.47571,-1.9671 z m 426.47951,0.22251 c -3.6052,-3.98369 -6.9268,-18.55034 -8.1408,-35.70035 l -0.6371,-9 4.4778,8.37969 c 4.4762,8.37655 9.9314,15.12031 12.2312,15.12031 2.7378,0 16.4357,-10.40294 24.588,-18.67343 9.5274,-9.66552 13.932,-14.99849 21.684,-26.25463 l 5.1156,-7.42806 v 4.04707 c 0,6.83827 -2.8472,20.83265 -5.991,29.44689 -7.671,21.01913 -22.3272,34.70054 -42.7754,39.9303 -9.1561,2.34173 -8.5595,2.33426 -10.5523,0.13221 z M 949.23088,480.50915 c -6.43872,-3.5401 -14.85386,-11.512 -19.07465,-18.06996 -6.97458,-10.83659 -11.93618,-30.01071 -11.91019,-46.02692 l 0.0152,-9.34292 5.45044,10.23005 c 9.52923,17.88562 20.89365,33.43836 29.29634,40.09342 l 4.05007,3.20771 4.33641,-3.75387 c 2.38502,-2.06463 6.50087,-6.15666 9.14632,-9.0934 l 4.80991,-5.33952 -0.69457,3.8278 c -1.04558,5.76227 -4.40099,16.32063 -6.61901,20.82781 -3.45793,7.02677 -10.23963,16.50061 -11.7983,16.48188 -0.82937,-0.01 -3.98294,-1.3789 -7.00794,-3.04208 z M 1398,481.81935 c -6.1903,-7.03089 -13.5624,-23.10849 -15.5103,-33.82609 l -0.9008,-4.95586 8.7372,8.84599 c 10.2019,10.32896 9.2045,10.35161 19.3849,-0.44017 7.7541,-8.2198 18.4026,-24.04836 24.7354,-36.7683 4.1606,-8.35686 4.2942,-8.50442 4.6223,-5.10557 0.6011,6.22491 -1.8326,24.75808 -4.4265,33.70886 -5.131,17.70603 -15.356,31.61146 -27.6048,37.54114 -6.6958,3.24143 -7.0313,3.27855 -9.0374,1 z M 948.31669,432.38376 c -10.65591,-13.16946 -15.37121,-26.50451 -15.49287,-43.81441 -0.0658,-9.36244 1.94813,-24.79226 3.08725,-23.65314 0.24023,0.24022 2.46424,6.44795 4.94225,13.79495 4.93654,14.63624 12.53856,31.32226 14.63705,32.12752 0.73296,0.28127 6.14942,-1.63964 12.03658,-4.26867 7.30453,-3.26199 10.70393,-4.35063 10.70393,-3.42787 0,2.77659 -4.1925,12.41433 -7.86193,18.07303 -4.65972,7.18586 -13.85471,17.35418 -15.69301,17.35418 -0.74484,0 -3.60651,-2.78351 -6.35925,-6.18559 z m 447.63711,0.93559 c -6.1242,-6.56457 -10.0409,-12.15825 -13.6644,-19.51499 -4.2824,-8.69453 -5.0748,-14.65844 -1.5086,-11.35499 0.5225,0.484 5.1756,2.73677 10.3401,5.00614 7.3946,3.24927 9.6897,3.87753 10.7997,2.95632 2.4011,-1.99274 8.865,-16.67542 13.9506,-31.68844 l 4.8596,-14.34595 1.2907,4.34595 c 0.7099,2.39028 1.5532,8.84596 1.874,14.34596 0.8042,13.78816 -1.2609,24.28092 -7.085,36 -4.3137,8.67978 -12.5519,19.5 -14.8468,19.5 -0.6117,0 -3.3161,-2.3625 -6.0099,-5.25 z m -439.61367,-41 c -4.99856,-12.36078 -6.40049,-28.48091 -3.62458,-41.67714 1.539,-7.31613 7.04701,-22.66539 8.44297,-23.52814 0.4381,-0.27076 1.06454,8.15842 1.39209,18.7315 0.32755,10.57308 0.98112,20.79878 1.45236,22.72378 0.8321,3.39909 0.98469,3.49294 5.29236,3.25518 5.23053,-0.2887 12.32861,-2.01504 16.18555,-3.93652 1.5125,-0.75351 2.75,-0.97823 2.75,-0.49938 0,1.94414 -8.04131,13.12679 -13.01795,18.10343 -4.42895,4.42896 -14.76277,12.07729 -16.31787,12.07729 -0.23754,0 -1.38726,-2.3625 -2.55493,-5.25 z m 435.32297,1.43563 c -7.2109,-4.67939 -16.966,-14.97533 -20.6413,-21.78573 l -2.7089,-5.01979 6.7089,2.21442 c 3.69,1.21793 9.015,2.51685 11.8333,2.8865 l 5.1244,0.67208 0.691,-3.68357 c 0.7137,-3.80394 2.4387,-28.14095 2.6205,-36.96954 l 0.1029,-5 2.9185,6.05985 c 5.3553,11.11952 7.2397,21.1569 6.6463,35.40314 -0.4175,10.02352 -1.0466,14.0332 -3.1378,19.99982 -1.4387,4.10454 -2.9779,7.82498 -3.4206,8.26765 -0.4426,0.44266 -3.4744,-0.92751 -6.7372,-3.04483 z M 972.23088,348.67074 c 0,-17.97591 6.95136,-38.21454 17.87996,-52.05685 l 1.9386,-2.45545 -0.88529,4.73869 c -1.85798,9.94529 -3.03174,22.30637 -2.426,25.54868 0.62556,3.3484 0.66734,3.37146 5.02618,2.77401 2.41746,-0.33135 6.99467,-1.47997 10.17157,-2.55249 3.1769,-1.07253 5.8974,-1.82887 6.0455,-1.68078 0.5304,0.53037 -7.1432,10.19124 -12.64478,15.91953 -6.31384,6.57401 -16.05278,13.90754 -21.48148,16.1758 l -3.62426,1.51431 z m 404.49992,4.11962 c -4.6919,-2.49407 -9.8027,-6.52376 -15.5,-12.22101 -9.4812,-9.4812 -16.7119,-18.91927 -13.4418,-17.54533 4.5105,1.89512 17.3975,4.77632 18.8575,4.21606 2.0594,-0.79028 2.0852,-7.76915 0.078,-21.0869 -0.822,-5.4539 -1.3451,-10.06565 -1.1624,-10.24834 0.6395,-0.63952 6.4427,8.22781 9.9244,15.16451 5.895,11.74497 7.8966,19.58754 8.486,33.25 0.2906,6.7375 0.3552,12.23695 0.1434,12.22101 -0.2117,-0.0159 -3.535,-1.70345 -7.385,-3.75 z M 999.83304,309.81935 c 2.64726,-11.37021 11.49266,-27.07694 19.82786,-35.20821 l 4.57,-4.45821 v 3.14311 c 0,1.72871 -0.4626,4.35982 -1.028,5.8469 -0.5654,1.48708 -0.8462,2.88559 -0.624,3.1078 0.2222,0.2222 4.1723,-2.30361 8.778,-5.61293 8.0029,-5.7503 19.7485,-12.21878 24.6964,-13.6006 2.2616,-0.63163 2.2839,-0.57427 0.8506,2.19177 -2.6833,5.17865 -13.391,19.53359 -20.0772,26.916 -10.6029,11.70686 -25.4546,20.42437 -34.7964,20.42437 -2.58403,0 -2.78033,-0.24567 -2.19726,-2.75 z m 346.68376,1.29925 c -12.9676,-4.05271 -27.5353,-17.45704 -41.8843,-38.53966 -3.7777,-5.55046 -5.9773,-9.65105 -5.2984,-9.87737 1.9349,-0.64495 18.9182,8.49297 26.7701,14.40371 4.0554,3.05281 7.518,5.40596 7.6948,5.22924 0.1767,-0.17673 -0.093,-2.10869 -0.5996,-4.29324 -1.8468,-7.96555 -1.38,-8.2952 4.1551,-2.93434 8.4553,8.18912 17.0732,23.42684 19.3493,34.21241 0.6673,3.16167 0.5954,3.24818 -2.6435,3.1831 -1.8312,-0.0368 -5.2258,-0.65952 -7.5435,-1.38385 z"
         id="path12959" /><path
         style="fill:#000050"
         d="m 1158.7308,598.89371 c -6.3594,-0.79698 -23.3574,-4.62992 -31,-6.99027 -13.1073,-4.04811 -34.734,-15.28309 -46.5,-24.15647 -12.2179,-9.21427 -27.9845,-25.26341 -36.3981,-37.05039 -12.0572,-16.89134 -21.892,-39.7324 -26.7505,-62.12723 -1.9689,-9.07531 -2.2809,-13.41722 -2.2992,-32 -0.019,-18.67977 0.2794,-22.90675 2.2708,-32.2243 9.4045,-44.00194 33.3487,-79.55818 70.2541,-104.32471 47.3929,-31.80446 110.9022,-35.90113 162.1922,-10.4622 17.2351,8.5483 28.9584,17.06778 43.248,31.42882 14.2809,14.35218 22.8754,26.15676 31.3668,43.08239 22.5772,45.00215 22.3948,100.07812 -0.4827,145.73154 -23.7327,47.36025 -69.262,80.32107 -121.9014,88.25033 -9.0985,1.37055 -35.7192,1.88027 -44,0.84249 z m 42.8877,-12.57436 c 2.3534,-3.73697 -3.4658,-7.73129 -6.0716,-4.16761 -1.6965,2.32014 -1.6583,2.9325 0.3053,4.89613 1.9491,1.94909 4.2643,1.65659 5.7663,-0.72852 z M 1092.191,562.11739 c 2.6564,-3.20083 -1.2453,-8.11777 -4.7102,-5.93574 -3.4623,2.18041 -2.2288,7.3877 1.75,7.3877 0.9654,0 2.2974,-0.65338 2.9602,-1.45196 z m 101.4436,-7.85407 c 2.7519,-2.0122 1.7502,-6.11841 -1.5865,-6.5039 -3.7613,-0.43454 -5.73,3.14397 -3.242,5.89312 2.0546,2.27035 2.4846,2.32474 4.8285,0.61078 z m -66.9894,-4.91369 c 0.7516,-2.15078 0.5661,-3.14443 -0.887,-4.75 -2.2285,-2.46255 -4.2661,-2.57671 -6.6986,-0.37529 -3.8462,3.48076 -1.5287,8.65154 3.6483,8.14009 2.2174,-0.21907 3.2317,-0.9957 3.9373,-3.0148 z m 87.3356,-4.05796 c 1.9018,-1.47155 1.4925,-6.19292 -0.7097,-8.18585 -3.8641,-3.49698 -9.961,0.6589 -8.6471,5.89416 0.9658,3.84775 5.8118,5.03467 9.3568,2.29169 z m -27.95,0.0777 c 3.2333,-3.23333 -1.7529,-8.74385 -5.2704,-5.82458 -2.841,2.35784 -1.1998,7.02458 2.4704,7.02458 0.88,0 2.14,-0.54 2.8,-1.2 z m -69.99,-3.98274 c 0.5488,-4.75027 -5.9115,-6.22328 -7.3545,-1.67689 -0.8582,2.70394 1.3584,5.0206 4.4589,4.66019 1.9667,-0.22861 2.6598,-0.94274 2.8956,-2.9833 z m -41.3314,-2.43864 c 1.9491,-1.94909 1.6566,-4.26429 -0.7285,-5.76632 -3.4649,-2.18203 -7.3666,2.73491 -4.7102,5.93574 1.5741,1.89664 3.4305,1.83881 5.4387,-0.16942 z m 11.4758,0.17642 c 0.6595,-0.79472 1.0521,-2.48222 0.8724,-3.75 -0.2583,-1.82187 -0.9556,-2.30504 -3.3268,-2.30504 -2.3711,0 -3.0684,0.48317 -3.3267,2.30504 -0.358,2.52561 1.3514,5.19496 3.3267,5.19496 0.6904,0 1.7948,-0.65023 2.4544,-1.44496 z m 36.0456,-4.55504 c 2.4023,-2.40228 2.5688,-5.28836 0.4286,-7.42857 -1.8596,-1.85966 -6.5295,-2.07045 -8.2286,-0.37143 -2.8938,2.89389 -0.1067,9.8 3.955,9.8 1.0148,0 2.745,-0.9 3.845,-2 z m 169.4286,-3.57143 c 3.0204,-3.02041 1.2826,-7.42857 -2.9286,-7.42857 -2.6805,0 -4.5,1.81954 -4.5,4.5 0,4.21115 4.4082,5.94899 7.4286,2.92857 z m -89.4685,-4.88053 c 2.6565,-3.20083 -1.2452,-8.11777 -4.7101,-5.93574 -3.4623,2.18041 -2.2288,7.3877 1.75,7.3877 0.9653,0 2.2974,-0.65338 2.9601,-1.45196 z m -56.8831,-3.47112 c 1.7621,-1.76217 2.923,-3.97705 2.923,-5.57692 0,-3.508 -4.992,-8.5 -8.5,-8.5 -3.508,0 -8.5,4.992 -8.5,8.5 0,3.508 4.992,8.5 8.5,8.5 1.5999,0 3.8148,-1.16091 5.577,-2.92308 z m 65.7329,-4.25966 c 0.4534,-3.92413 -3.2709,-5.80071 -6.0321,-3.03948 -1.6486,1.6486 -1.7838,2.34239 -0.8109,4.16032 1.7457,3.26196 6.4252,2.49549 6.843,-1.12084 z m -112.0093,-1.90288 c 0.3651,-3.14099 -1.9663,-5.31397 -4.7526,-4.42963 -1.4137,0.44869 -2.048,1.50666 -2.048,3.41595 0,3.49256 0.7864,4.26559 3.9626,3.89519 1.8883,-0.22021 2.6143,-0.9574 2.838,-2.88151 z m 98.6333,0.75761 c 3.6885,-2.69711 1.3114,-9.67201 -3.2963,-9.67201 -2.3092,0 -5.1376,3.07389 -5.1376,5.58356 0,4.54264 4.6981,6.82012 8.4339,4.08845 z m -149.9553,-2.29339 c 1.9491,-1.94909 1.6566,-4.26429 -0.7285,-5.76632 -3.4649,-2.18203 -7.3666,2.73491 -4.7102,5.93574 1.5741,1.89664 3.4305,1.83881 5.4387,-0.16942 z m 35.8866,-2.4512 c 5.2313,-4.11494 2.3311,-12.92742 -4.2544,-12.92742 -7.1075,0 -10.1027,8.02968 -4.7216,12.65826 3.3548,2.88573 5.5653,2.95202 8.976,0.26916 z m 33.1254,-2.91213 c 0.3311,-0.53568 0.1009,-1.91023 -0.5116,-3.05456 -1.6162,-3.02002 -6.3552,-2.3372 -6.8239,0.98324 -0.6278,4.4472 4.9021,6.00865 7.3355,2.07132 z m -10.7406,-1.29297 c 1.7738,-1.37248 1.5492,-6.28027 -0.3754,-8.20489 -2.3876,-2.38765 -7.5398,-1.60069 -9.016,1.37715 -2.9334,5.91699 4.0279,10.9779 9.3914,6.82774 z m 75.25,-1.72232 c 5.5943,-5.59433 -1.7855,-13.86107 -8.9507,-10.02638 -3.5364,1.8926 -3.3211,8.80952 0.3504,11.26107 2.1001,1.40224 6.611,0.75464 8.6003,-1.23469 z m -45.9304,-1.58382 c 1.889,-2.27607 -0.079,-4.91618 -3.6648,-4.91618 -2.9553,0 -4.1768,2.04561 -3.0207,5.05841 0.74,1.92844 5.043,1.83689 6.6855,-0.14223 z m 93.3457,-6.37072 c 0.3734,-3.29961 1.3603,-8.29421 2.1933,-11.09911 1.8211,-6.13234 3.8438,-7.23155 16.7375,-9.09578 4.7596,-0.68818 8.6539,-1.55638 8.6539,-1.92934 0,-0.37296 -3.2625,-1.17536 -7.25,-1.78312 -10.7669,-1.64105 -14.5916,-2.96666 -16.364,-5.67176 -0.8773,-1.33893 -2.3236,-6.71661 -3.214,-11.95039 -0.8903,-5.23378 -1.9066,-9.51596 -2.2582,-9.51596 -0.3517,0 -1.1918,3.4875 -1.8669,7.75 -0.6751,4.2625 -2.0213,9.57165 -2.9916,11.79811 -1.975,4.53174 -3.9178,5.41243 -16.8053,7.61815 -3.9875,0.68246 -7.25,1.50909 -7.25,1.83696 0,0.32787 3.8943,1.15917 8.6539,1.84735 4.7597,0.68818 10.1286,1.86738 11.931,2.62045 3.7206,1.55459 4.7363,4.11099 6.6421,16.71768 0.6393,4.22879 1.4655,7.50135 1.836,7.27238 0.3705,-0.22898 0.979,-3.11601 1.3523,-6.41562 z m -64.9867,-7.61689 c 1.9097,-1.90971 1.9442,-2.53659 0.2654,-4.83241 -1.8644,-2.54974 -6.0992,-1.76465 -6.5207,1.20888 -0.627,4.42304 3.2246,6.6542 6.2553,3.62353 z m 152.8255,0.32143 c 4.4686,-3.41344 1.9873,-11 -3.5977,-11 -5.6331,0 -8.6825,6.35374 -5.0014,10.42126 1.9081,2.1084 6.217,2.3984 8.5991,0.57874 z m -195.2939,-3.20196 c 2.6564,-3.20083 -1.2453,-8.11777 -4.7102,-5.93574 -3.4623,2.18041 -2.2288,7.3877 1.75,7.3877 0.9654,0 2.2974,-0.65338 2.9602,-1.45196 z m 78.4961,0.10755 c 2.637,-1.92819 1.376,-6.65559 -1.7753,-6.65559 -4.281,0 -5.9949,3.54327 -3.1096,6.42857 1.9174,1.91742 2.534,1.94607 4.8849,0.22702 z m -91.2878,-2.12598 c 0.8607,-1.88895 0.8268,-2.83039 -0.1439,-4 -2.3578,-2.84101 -7.0246,-1.19983 -7.0246,2.47039 0,4.22699 5.4132,5.38206 7.1685,1.52961 z m -64.4184,-5.36048 c 0.6875,-0.85326 1.25,-2.55824 1.25,-3.78883 0,-5.42517 -7.5941,-7.45572 -10.6188,-2.83934 -3.9319,6.00077 4.8617,12.22198 9.3688,6.62817 z m 83.1928,-8.66913 c 0.046,-1.65 0.9597,-7.24696 2.0307,-12.43768 2.9019,-14.06456 2.5483,-13.85485 31.5264,-18.69616 l 4,-0.66827 -3,-0.76996 c -1.65,-0.42347 -7.8956,-1.69183 -13.8791,-2.81857 -5.9836,-1.12674 -11.877,-2.70239 -13.0965,-3.50144 -2.4455,-1.60234 -4.7312,-8.64108 -6.5299,-20.10792 -1.4529,-9.26302 -2.0117,-11.81607 -2.483,-11.34483 -0.2151,0.21514 -1.1494,4.88074 -2.0761,10.368 -0.9268,5.48726 -2.5524,12.3158 -3.6125,15.17454 -1.7841,4.81112 -2.314,5.34108 -7.1251,7.12515 -2.8588,1.06009 -9.6873,2.6857 -15.1746,3.61245 -8.7005,1.46946 -12.8851,2.55164 -9.9398,2.57059 0.5041,0.003 5.4166,0.68188 10.9166,1.50808 13.6475,2.05012 19.1981,4.00147 20.9348,7.35979 1.5349,2.96821 3.9708,14.26382 5.0949,23.62623 0.5373,4.47457 0.925,5.49152 1.5251,4 0.4426,-1.1 0.8422,-3.35 0.8881,-5 z m 11.0115,4.05504 c 0.6595,-0.79472 1.0521,-2.48222 0.8724,-3.75 -0.2583,-1.82187 -0.9556,-2.30504 -3.3268,-2.30504 -2.3711,0 -3.0684,0.48317 -3.3267,2.30504 -0.358,2.52561 1.3514,5.19496 3.3267,5.19496 0.6904,0 1.7948,-0.65023 2.4544,-1.44496 z m -51.4758,-3.17642 c 1.9491,-1.94909 1.6566,-4.26429 -0.7286,-5.76632 -3.4649,-2.18203 -7.3665,2.73491 -4.7101,5.93574 1.5741,1.89664 3.4304,1.83881 5.4387,-0.16942 z m 93.0214,-1.76963 c 0,-1.71688 -0.7362,-3.34141 -1.8126,-4 -1.4755,-0.90272 -2.1703,-0.67322 -3.7355,1.23387 -2.5942,3.16085 -1.0305,6.41716 2.8654,5.96707 2.2202,-0.25649 2.6827,-0.80837 2.6827,-3.20094 z m -14.1672,-1.67368 c 2.7555,-3.93409 -0.5122,-7.96528 -5.2404,-6.46463 -2.7241,0.8646 -3.3864,3.43159 -1.592,6.17022 1.9064,2.90949 4.9101,3.03892 6.8324,0.29441 z m 26.8385,-1.5903 c 2.2786,-2.06213 2.3704,-7.08898 0.1737,-9.51627 -2.0621,-2.27863 -7.089,-2.37042 -9.5163,-0.17375 -2.2786,2.06213 -2.3704,7.08898 -0.1737,9.51627 2.0621,2.27863 7.089,2.37042 9.5163,0.17375 z m 21.8939,-1.46684 c 0.9409,-1.75803 0.7731,-2.48435 -0.9787,-4.23612 -1.6713,-1.67125 -2.4781,-1.88519 -3.8504,-1.02099 -1.9189,1.20845 -2.7026,3.72079 -1.8521,5.93735 0.8539,2.22506 5.3726,1.76499 6.6812,-0.68024 z m -174.3151,-1.123 c 1.7715,-1.41728 1.5492,-5.76702 -0.405,-7.92643 -1.8947,-2.09366 -6.6182,-2.43114 -8.1002,-0.57874 -2.4586,3.07311 -2.3924,5.69336 0.2097,8.29545 2.6021,2.6021 5.2224,2.66834 8.2955,0.20972 z m 232.43,-0.25111 c 0.9397,-2.06233 0.8222,-2.84409 -0.6764,-4.5 -3.1068,-3.43292 -7.5037,-1.97038 -7.5037,2.49594 0,4.80483 6.2107,6.32641 8.1801,2.00406 z m -35.3801,-7.70406 c 2.803,-2.803 0.076,-7.53027 -3.6596,-6.34455 -2.5203,0.7999 -3.4088,3.17455 -2.1016,5.61699 1.1635,2.17411 3.9613,2.52743 5.7612,0.72756 z M 1158.63,455.2567 c 1.5638,-2.57497 -2.6684,-6.14881 -5.492,-4.63765 -1.8669,0.99915 -2.6065,4.91764 -1.1946,6.32954 1.262,1.26199 5.5518,0.17653 6.6866,-1.69189 z m 23.6008,-1.68735 c 2.1606,-4.03707 -2.6127,-7.98734 -5.8,-4.8 -2.5118,2.51177 -0.6421,6.8 2.9648,6.8 0.9707,0 2.2465,-0.9 2.8352,-2 z m 124.9765,-1.97648 c 1.4502,-1.45024 1.7608,-2.55953 1.1664,-4.16638 -1.2304,-3.326 -4.7687,-4.23133 -7.1664,-1.83362 -2.4823,2.48224 -2.4784,3.47462 0.024,5.97648 2.5019,2.50186 3.4942,2.50576 5.9765,0.0235 z m -207.0152,-0.95108 c 0.5674,-1.06015 0.7666,-2.61802 0.4428,-3.46193 -0.8164,-2.12738 -4.2041,-3.02137 -5.952,-1.57068 -1.4911,1.23749 -1.9738,5.10513 -0.7854,6.2935 1.3794,1.37944 5.302,0.59369 6.2946,-1.26089 z m 153.4334,-5.37175 c 1.1821,-0.86443 1.6645,-2.28694 1.4411,-4.25 -0.2859,-2.51202 -0.8179,-2.9972 -3.5786,-3.26351 -2.663,-0.25689 -3.4513,0.14473 -4.4087,2.24593 -0.974,2.13774 -0.8674,2.88852 0.6478,4.56283 2.1152,2.33723 3.448,2.49648 5.8984,0.70475 z m -39.9661,-2.27212 c 3.0204,-3.02041 1.2826,-7.42857 -2.9286,-7.42857 -6.0415,0 -5.866,8.81363 0.1786,8.96959 0.6482,0.0167 1.8857,-0.67673 2.75,-1.54102 z m -32.7661,-2.36524 c 1.4004,-2.82463 0.3927,-5.42824 -2.7525,-7.11148 -4.5757,-2.44883 -9.413,5.14516 -5.6649,8.89323 2.0412,2.04122 7.0474,0.98154 8.4174,-1.78175 z m 56.3375,-1.06333 c 4.115,-4.11497 0.7111,-12 -5.1803,-12 -2.4679,0 -6.8197,4.35184 -6.8197,6.81969 0,5.89137 7.885,9.29528 12,5.18031 z m -162.4504,-2.15596 c 0.803,-2.53022 -1.1806,-4.84404 -4.1529,-4.84404 -3.1157,0 -4.5452,4.68701 -1.9976,6.54982 2.2142,1.61905 5.3733,0.7429 6.1505,-1.70578 z m 132.4863,-2.9111 c 0.8605,-1.60793 0.7522,-2.60745 -0.4879,-4.5 -1.7615,-2.6885 -2.7446,-2.93327 -5.6137,-1.39776 -1.8889,1.01091 -2.7274,5.83838 -1.2676,7.29815 1.5195,1.51952 6.2919,0.61261 7.3692,-1.40039 z m 39.4641,-6.93294 c 0,-2.42631 -0.5512,-3.47478 -2.1345,-4.0605 -2.6516,-0.98088 -6.3655,1.3882 -6.3655,4.0605 0,2.6723 3.7139,5.04138 6.3655,4.0605 1.5833,-0.58572 2.1345,-1.63419 2.1345,-4.0605 z m -106.4304,-4.58382 c 1.889,-2.27607 -0.079,-4.91618 -3.6648,-4.91618 -2.9553,0 -4.1768,2.04561 -3.0207,5.05841 0.74,1.92844 5.043,1.83689 6.6855,-0.14223 z m 40.1017,-1.07117 c 2.7274,-2.46829 2.3536,-6.95497 -0.7488,-8.98774 -5.5371,-3.62804 -11.6933,2.52816 -8.0652,8.06523 1.9773,3.01783 6.03,3.442 8.814,0.92251 z m -128.2064,-1.27927 c 2.597,-4.8526 -0.1131,-9.38038 -5.3091,-8.86974 -2.1155,0.2079 -3.5585,1.13686 -4.565,2.93877 -1.3181,2.35965 -1.2928,2.90785 0.2418,5.25 2.1681,3.30897 8.005,3.72162 9.6323,0.68097 z m 269.2064,-0.72073 c 3.7229,-3.36918 1.1428,-10.34501 -3.8263,-10.34501 -2.9428,0 -6.345,3.30906 -6.345,6.17126 0,5.03396 6.3441,7.63726 10.1713,4.17375 z m -109.3457,-10.59551 c 1.8063,-12.19476 3.0408,-14.33533 9.3477,-16.20847 2.9297,-0.87012 7.8017,-1.85792 10.8267,-2.19511 9.0536,-1.00921 8.7963,-1.94613 -1.0282,-3.74354 -5.0887,-0.93099 -10.7331,-2.31145 -12.543,-3.06767 -3.7165,-1.55288 -4.7121,-4.04289 -6.6111,-16.53471 -0.6271,-4.125 -1.4348,-7.84468 -1.7949,-8.26597 -0.3601,-0.42128 -1.4079,3.48492 -2.3285,8.68044 -2.7795,15.68656 -3.4836,16.41024 -18.6711,19.18882 -9.8198,1.79656 -10.0759,2.73352 -1.0232,3.74263 3.025,0.33719 7.815,1.30062 10.6444,2.14095 4.4746,1.32895 5.3428,2.0238 6.6684,5.3369 0.8383,2.09496 2.0674,7.525 2.7315,12.06675 0.6641,4.54175 1.5283,7.88687 1.9204,7.4336 0.3921,-0.45327 1.2295,-4.31184 1.8609,-8.57462 z m 63.9872,5.50769 c 0.2582,-2.67599 -0.1425,-3.45031 -2.2924,-4.42984 -2.2537,-1.02688 -2.8935,-0.89866 -4.7426,0.95043 -1.8491,1.84908 -1.9773,2.48889 -0.9504,4.74265 0.9795,2.14983 1.7538,2.55053 4.4298,2.29239 2.8481,-0.27474 3.2809,-0.70757 3.5556,-3.55563 z m -24.0353,0.18611 c 4.456,-3.12113 1.9879,-10.4433 -3.5202,-10.4433 -5.0773,0 -8.0175,5.39838 -5.0073,9.19384 2.3511,2.96439 5.4341,3.41612 8.5275,1.24946 z m 12.2117,-0.93031 c 1.6626,-2.00334 0.4838,-6.2281 -1.9538,-7.00174 -4.4417,-1.40974 -8.0679,4.05627 -4.8354,7.28875 1.6578,1.65776 5.3031,1.50366 6.7892,-0.28701 z m 37.4394,-5.08442 c 3.4786,-3.47858 0.5885,-10.42857 -4.3367,-10.42857 -2.008,0 -6.0919,3.98992 -6.0919,5.95181 0,5.05171 6.8941,8.01121 10.4286,4.47676 z m -70.6158,-7.17138 c 0.2569,-2.66295 -0.1447,-3.45129 -2.2459,-4.40867 -2.1377,-0.97402 -2.8885,-0.86742 -4.5628,0.6478 -3.8277,3.46399 -1.7475,7.81317 3.491,7.29876 2.5837,-0.25371 3.0488,-0.74967 3.3177,-3.53789 z m -51.0128,-0.45719 c 1.6578,-1.65776 1.5037,-5.3031 -0.287,-6.78922 -3.7772,-3.1348 -9.637,2.72501 -6.5022,6.50221 1.4861,1.79067 5.1314,1.94477 6.7892,0.28701 z m 66,0 c 1.6578,-1.65776 1.5037,-5.3031 -0.287,-6.78922 -2.0034,-1.66263 -6.2281,-0.48375 -7.0017,1.95377 -1.4098,4.44171 4.0562,8.06793 7.2887,4.83545 z m -206.2999,-7.19101 c 0,-1.71688 -0.7362,-3.34141 -1.8127,-4 -1.4755,-0.90272 -2.1703,-0.67322 -3.7355,1.23387 -2.5941,3.16085 -1.0305,6.41716 2.8654,5.96707 2.2202,-0.25649 2.6828,-0.80837 2.6828,-3.20094 z m 267.5201,1.35324 c 1.5112,-2.82369 0.3182,-5.83919 -2.5998,-6.57157 -2.9768,-0.74713 -5.4204,1.07044 -5.4204,4.03178 0,4.53314 5.9457,6.41599 8.0202,2.53979 z m -32.2118,-5.64579 c 0.3696,-3.81494 -2.5489,-6.06088 -5.6908,-4.3794 -4.6909,2.51051 -3.0513,8.37996 2.1988,7.87136 2.7684,-0.26818 3.2238,-0.72357 3.492,-3.49196 z m 11.9916,-1.51644 c 0.66,-0.66 1.2,-2.145 1.2,-3.3 0,-4.39273 -5.9596,-6.31252 -7.9648,-2.56574 -1.4064,2.62788 -1.3065,3.65158 0.5362,5.49431 1.8715,1.87152 4.5677,2.0323 6.2286,0.37143 z m -27.8502,-4.23953 c 0.6571,-0.79174 1.0497,-2.70424 0.8725,-4.25 -0.2689,-2.34444 -0.8502,-2.86161 -3.5059,-3.11887 -2.4143,-0.23389 -3.4584,0.20513 -4.321,1.81705 -2.3255,4.34516 3.8586,9.28201 6.9544,5.55182 z m -18.5197,-2.76409 c 1.3163,-1.87928 1.3435,-2.50482 0.1847,-4.25 -0.7473,-1.12551 -2.374,-2.04638 -3.6148,-2.04638 -1.2408,0 -2.8675,0.92087 -3.6148,2.04638 -1.1588,1.74518 -1.1316,2.37072 0.1847,4.25 0.8489,1.21199 2.3925,2.20362 3.4301,2.20362 1.0376,0 2.5812,-0.99163 3.4301,-2.20362 z m 78.5699,0.20362 c 2.4026,-2.40261 2.5385,-4.78621 0.4433,-7.77749 -3.1211,-4.45603 -10.4433,-1.9879 -10.4433,3.52018 0,5.61502 6.0617,8.19566 10,4.25731 z m -35.2,-5.2 c 3.6333,-3.63331 -1.0728,-9.32994 -5.6735,-6.8677 -3.9153,2.09541 -2.1583,8.0677 2.3735,8.0677 1.155,0 2.64,-0.54 3.3,-1.2 z m -7.1145,-10.97431 c 2.7092,-2.54508 2.9074,-4.5342 0.7578,-7.60318 -1.8486,-2.63931 -6.5394,-2.98355 -8.8719,-0.65108 -2.3324,2.33247 -1.9882,7.02322 0.6511,8.87187 3.0017,2.10246 4.7189,1.96035 7.463,-0.61761 z m -154.8855,-9.02569 c 2.1228,-2.12274 1.4113,-5.74661 -1.3776,-7.01734 -3.1383,-1.4299 -5.7686,-0.11476 -6.2491,3.12451 -0.6278,4.23245 4.6124,6.90716 7.6267,3.89283 z m 26.2,-0.8 c 1.1,-1.1 2,-2.9 2,-4 0,-2.47882 -3.3906,-6 -5.7774,-6 -3.0424,0 -6.2226,2.92742 -6.2226,5.72796 0,5.62851 6.0563,8.21577 10,4.27204 z m 143.548,-0.43294 c 2.3358,-3.56483 0.4322,-6.79548 -3.7565,-6.37546 -3.8299,0.38402 -5.3393,3.58127 -3.1598,6.6929 1.9715,2.81473 4.9537,2.67785 6.9163,-0.31744 z m -196.3767,-2.22205 c 4.2704,-3.86463 0.7747,-10.20067 -5.1713,-9.37324 -2.1946,0.3054 -5,3.08872 -5,4.96071 0,5.10551 6.3578,7.86367 10.1713,4.41253 z m 169.2234,-5.64432 c 2.5209,-1.84337 1.7903,-6.73355 -1.1682,-7.81929 -1.7009,-0.6242 -2.7714,-0.33652 -4.25,1.14212 -2.4823,2.48224 -2.4784,3.47462 0.024,5.97648 2.3505,2.35049 3.0196,2.4374 5.3947,0.70069 z m -94.5947,-13.90069 c 3.884,-3.884 -1.7267,-9.98625 -5.7959,-6.30368 -3.4329,3.10676 -1.9704,7.50368 2.4959,7.50368 1.155,0 2.64,-0.54 3.3,-1.2 z m 107.1892,-8.28701 c 3.1348,-3.7772 -2.725,-9.63701 -6.5022,-6.50221 -1.7907,1.48612 -1.9448,5.13146 -0.287,6.78922 1.6578,1.65776 5.3031,1.50366 6.7892,-0.28701 z m -154.5606,-23.08442 c 3.1622,-3.16217 0.8203,-10.42857 -3.361,-10.42857 -2.9039,0 -6.0676,2.9866 -6.0676,5.72796 0,5.28271 5.9034,8.22583 9.4286,4.70061 z m 78.9896,-0.0356 c 0.9006,-0.34557 1.5818,-1.76682 1.5818,-3.3 0,-5.01711 -4.1956,-6.74428 -7.5037,-3.08895 -1.4985,1.65591 -1.6161,2.43767 -0.6764,4.5 1.1189,2.45576 3.4112,3.11198 6.5983,1.88895 z m 30.3818,-6.59297 c 1.6578,-1.65776 1.5037,-5.3031 -0.287,-6.78922 -2.042,-1.69467 -6.2339,-0.46552 -7.0365,2.06321 -1.2629,3.97907 4.4098,7.63976 7.3235,4.72601 z m 161.2,291.82244 c 0,-0.20765 0.7875,-0.99515 1.75,-1.75 1.5861,-1.24387 1.6214,-1.2085 0.3776,0.37756 -1.3064,1.66575 -2.1276,2.19548 -2.1276,1.37244 z M 1346.567,436.56935 c 0,-4.125 0.1765,-5.8125 0.3923,-3.75 0.2157,2.0625 0.2157,5.4375 0,7.5 -0.2158,2.0625 -0.3923,0.375 -0.3923,-3.75 z m 13.9919,0.5 c 0,-3.85 0.1852,-5.30246 0.4017,-3.2277 0.2165,2.07477 0.2128,5.22477 -0.01,7 -0.2209,1.77524 -0.398,0.0777 -0.3936,-3.7723 z m -300.328,-121 c 1.2917,-1.375 2.5736,-2.5 2.8486,-2.5 0.275,0 -0.5569,1.125 -1.8486,2.5 -1.2918,1.375 -2.5737,2.5 -2.8487,2.5 -0.275,0 0.5569,-1.125 1.8487,-2.5 z m 246.8723,-8.25 c -1.2438,-1.58606 -1.2085,-1.62143 0.3776,-0.37756 1.6657,1.30637 2.1955,2.12756 1.3724,2.12756 -0.2076,0 -0.9951,-0.7875 -1.75,-1.75 z m 14,-13 c -1.2438,-1.58606 -1.2085,-1.62143 0.3776,-0.37756 1.6657,1.30637 2.1955,2.12756 1.3724,2.12756 -0.2076,0 -0.9951,-0.7875 -1.75,-1.75 z"
         id="path12947"
         sodipodi:nodetypes="ssssscssssssssssssssssssssssssssssssssssssssssssssssssssssssssssssssssssssssssssssssssssssssssssssssssssssssssssssssssssssssssssssssssssssssssssssssssssscssssssssscssssssssssssssssssssssssssssssssssssssssssssssssssssssscsscccsssssssssssssssssssssssssssssssssssssssssssssssssssssssssssssssssssssssssssssssssssssssssssssssssssssssssssssssssssssssssssssssssssssssssssssssssssssssssssssssscsscccssssssssssssssssssssssssssssscscccsssssssssssss" /></g><g
       id="g14059"
       transform="translate(1.3082149e-7,-6.5765367)"><text
         xml:space="preserve"
         id="text12973"
         style="font-style:normal;font-variant:normal;font-weight:normal;font-stretch:normal;font-size:47.99999938px;font-family:'LCARS Font';-inkscape-font-specification:'LCARS Font, Normal';white-space:pre;shape-inside:url(#rect12975);display:inline;fill:#000000;fill-opacity:1;stroke:none;font-variant-ligatures:normal;font-variant-caps:normal;font-variant-numeric:normal;font-variant-east-asian:normal"
         transform="matrix(0.87755864,0,0,0.87755864,235.21488,119.99246)"><tspan
           x="644.63867"
           y="779.58008"
           id="tspan391"><tspan
             style="fill:#aaaaff"
             id="tspan389">AUTHORIZED PERSONNEL ONLY</tspan></tspan></text><text
         xml:space="preserve"
         id="text12973-1"
         style="font-style:normal;font-variant:normal;font-weight:normal;font-stretch:normal;font-size:47.99999938px;font-family:'LCARS Font';-inkscape-font-specification:'LCARS Font, Normal';white-space:pre;shape-inside:url(#rect12975-6);display:inline;fill:#000000;fill-opacity:1;stroke:none;font-variant-ligatures:normal;font-variant-caps:normal;font-variant-numeric:normal;font-variant-east-asian:normal"
         transform="matrix(0.87755864,0,0,0.87755864,69.040278,165.76694)"><tspan
           x="644.63867"
           y="779.58008"
           id="tspan395"><tspan
             style="fill:#aaaaff"
             id="tspan393">REPORT ALL MALFUNCTIONS TO ENGINEERING STAFF ON DUTY</tspan></tspan></text></g></g></svg>
